<?xml version="1.0" encoding="UTF-8" standalone="no"?>
<!-- Created with Inkscape (http://www.inkscape.org/) -->

<svg
   xmlns:dc="http://purl.org/dc/elements/1.1/"
   xmlns:cc="http://creativecommons.org/ns#"
   xmlns:rdf="http://www.w3.org/1999/02/22-rdf-syntax-ns#"
   xmlns:svg="http://www.w3.org/2000/svg"
   xmlns="http://www.w3.org/2000/svg"
   xmlns:sodipodi="http://sodipodi.sourceforge.net/DTD/sodipodi-0.dtd"
   xmlns:inkscape="http://www.inkscape.org/namespaces/inkscape"
   version="1.1"
   id="svg20075"
   xml:space="preserve"
   width="981.34265"
   height="1150.0732"
   viewBox="0 0 981.34265 1150.0732"
   sodipodi:docname="vectorstock_22375300.svg"
   inkscape:version="0.92.2 (5c3e80d, 2017-08-06)"><metadata
     id="metadata20081"><rdf:RDF><cc:Work
         rdf:about=""><dc:format>image/svg+xml</dc:format><dc:type
           rdf:resource="http://purl.org/dc/dcmitype/StillImage" /><dc:title></dc:title></cc:Work></rdf:RDF></metadata><defs
     id="defs20079"><clipPath
       clipPathUnits="userSpaceOnUse"
       id="clipPath20091"><path
         d="M 0,862.555 H 736.007 V 0 H 0 Z"
         id="path20089"
         inkscape:connector-curvature="0" /></clipPath></defs><sodipodi:namedview
     pagecolor="#ffffff"
     bordercolor="#666666"
     borderopacity="1"
     objecttolerance="10"
     gridtolerance="10"
     guidetolerance="10"
     inkscape:pageopacity="0"
     inkscape:pageshadow="2"
     inkscape:window-width="1920"
     inkscape:window-height="1017"
     id="namedview20077"
     showgrid="false"
     inkscape:zoom="0.58040547"
     inkscape:cx="490.67133"
     inkscape:cy="575.03662"
     inkscape:window-x="-8"
     inkscape:window-y="-8"
     inkscape:window-maximized="1"
     inkscape:current-layer="g20083" /><g
     id="g20083"
     inkscape:groupmode="layer"
     inkscape:label="vectorstock_22375300"
     transform="matrix(1.3333333,0,0,-1.3333333,0,1150.0733)"><g
       id="g20085"><g
         id="g20087"
         clip-path="url(#clipPath20091)"><g
           id="g20093"
           transform="translate(169.361,803.5024)"><path
             d="m 0,0 c 3.275,-15.076 17.569,-23.792 17.569,-23.792 0,0 -69.91,28.185 -99.193,-10.614 18.424,4.238 25.256,-0.915 25.256,-0.915 0,0 -51.243,-21.785 -56.002,-36.972 0,0 10.615,2.195 14.458,-2.376 0,0 -16.582,-10.523 -23.242,-33.308 -6.954,-23.792 -4.759,-39.531 -4.759,-39.531 0,0 14.784,20.132 21.962,18.485 -7.687,-13.361 -22.694,-44.355 -13.543,-95.35 0.191,-30.663 12.55,-134.415 -2.196,-195.249 -4.147,-17.11 -7.957,-39.215 -17.813,-45.108 16.593,0.732 30.014,12.201 30.014,12.201 0,0 -36.359,-31.721 -25.622,-71.253 0,0 4.848,10.626 12.168,18.191 -6.832,-20.986 -6.068,-50.157 5.645,-71.142 l 14.885,9.273 c 0,0 3.905,-40.263 -9.76,-52.22 15.373,3.66 24.889,11.957 24.889,11.957 0,0 -2.928,-27.574 18.546,-41.728 21.473,-14.152 27.329,-34.893 27.329,-34.893 l 12.689,16.104 c 1.22,-14.152 12.689,-27.329 25.866,-39.53 13.177,-12.201 19.391,-39.001 19.391,-45.102 12.209,6.688 10.867,19.236 10.867,19.236 0,0 8.541,-7.076 14.397,-8.296 0.92,-7.587 -3.792,-15.39 -8.829,-19.328 -0.31,-0.242 -0.621,-0.47 -0.931,-0.682 13.176,4.881 30.746,2.928 42.214,-3.172 11.469,-6.1 28.187,-9.435 35.995,-8.948 -3.904,-5.124 -13.057,-6.425 -13.057,-6.425 0,0 24.89,-6.527 42.459,0 -0.915,-6.1 -13.36,-14.886 -13.36,-14.886 0,0 44.681,-0.63 67.374,5.226 -3.477,-6.04 -9.725,-13.355 -9.725,-13.355 0,0 23.875,0 48.315,18.012 0,0 6.955,-8.052 25.256,2.38 -2.745,-9.334 -16.471,-18.484 -23.792,-18.119 15.008,-6.405 40.446,2.38 53.257,6.04 12.811,3.66 27.085,14.274 29.282,19.216 1.281,-7.137 -6.039,-21.595 -13.177,-24.706 26.537,3.111 31.479,19.582 40.08,36.602 8.602,17.02 15.007,52.525 15.007,52.525 0,0 23.426,30.013 23.426,50.877 0,0 10.37,124.693 22.571,165.199 12.2,40.507 61.492,204.486 61.492,204.486 0,0 -50.389,160.685 -84.063,201.314 -33.675,40.629 -45.754,60.76 -44.656,94.434 -8.418,-10.98 -9.15,-27.451 -5.856,-32.21 C 314.903,-4.026 291.722,27.94 294.65,42.581 285.134,36.48 272.933,22.083 272.444,5.734 263.416,23.426 260.488,37.213 261.83,45.143 251.947,34.285 246.945,16.471 254.998,6.467 c -25.5,13.177 -64.665,40.628 -65.031,52.585 -7.321,-4.88 -17.203,-33.674 -6.954,-54.294 -23.182,5.125 -30.259,27.452 -30.259,27.452 0,0 -7.042,-11.958 -2.094,-29.18 C 119.06,1.322 104.305,-4.622 88.403,-7.275 74.2,-9.646 28.184,-17.203 0,0"
             style="fill:#000000;fill-opacity:1;fill-rule:nonzero;stroke:none"
             id="path20095"
             inkscape:connector-curvature="0" /></g><g
           id="g20097"
           transform="translate(639.3962,370.0263)"><path
             d="m 0,0 c -9.78,-6.676 -21.112,-13.074 -26.778,-14.538 -3.909,-17.203 -20.894,-33.309 -20.894,-33.309 l -35.914,-129.558 c 0,0 15.813,16.457 18.74,23.777 6.589,2.563 12.812,-34.406 -11.713,-63.322 -6.954,-8.053 -20.13,-17.203 -20.13,-17.203 0,0 0.087,-0.279 0.19,-0.835 0.6,-3.616 1.288,-18.814 -22.519,-41.991 -27.451,-26.719 -150.801,-40.628 -209.365,-23.425 -58.564,17.203 -65.519,137.992 -65.519,137.992 l 27.642,159.952 -104.214,-31.228 90.847,137.625 c 0,0 154.668,66.645 215.691,65.05 61.024,-1.611 142.003,-31.625 142.003,-31.625 15.154,-9.883 27.247,-30.878 33.806,-46.763 h 0.015 C 14.318,84.713 15.987,79.53 16.778,75.87 18.975,65.738 15.212,49.048 13.191,41.288 12.503,38.667 12.02,37.071 12.02,37.071 c 0,0 4.26,-15.739 5.417,-20.863 C 18.022,13.646 9.794,6.677 0,0"
             style="fill:#ffffff;fill-opacity:1;fill-rule:nonzero;stroke:none"
             id="path20099"
             inkscape:connector-curvature="0" /></g><g
           id="g20101"
           transform="translate(436.5592,407.1035)"><path
             d="m 0,0 -23.667,-16.577 c 0,0 -46.956,-76.822 -56.729,-105.465 -9.773,-28.644 -15.7,-33.225 -4.437,-60.277 11.262,-27.053 37.763,-98.062 58.369,-99.527 20.608,-1.464 93.446,-1.83 93.446,-1.83 0,0 49.261,58.345 55.427,80.585 6.165,22.241 32.756,118.167 32.756,118.167 0,0 18.827,22.028 20.471,31.633 0,0 36.049,18.926 38.123,24.393 2.074,5.466 -10.579,17.972 -10.579,17.972 0,0 -38.347,28.734 -92.031,29.709 C 57.466,19.76 0,0 0,0"
             style="fill:#000000;fill-opacity:1;fill-rule:nonzero;stroke:none"
             id="path20103"
             inkscape:connector-curvature="0" /></g><g
           id="g20105"
           transform="translate(381.1061,268.7402)"><path
             d="m 0,0 -33.228,-10.127 c 0,0 -6.544,-4.553 1.233,-26.983 7.777,-22.43 46.493,-100.32 46.493,-100.32 0,0 0.57,-10.444 28.876,-7.882 28.307,2.562 53.45,-0.405 53.45,-0.405 0,0 38.091,-0.571 51.434,6.139 13.343,6.711 27.991,15.51 37.321,28.862 9.33,13.354 18.188,41.835 11.918,54.616 -4.297,8.76 -8.334,-7.788 -20.623,-17.708 -12.289,-9.92 -6.538,2.575 -6.538,2.575 l -4.785,54.771 c 0,0 -16.227,22.501 -31.379,17.211 0,0 -0.582,-23.394 3.357,-37.418 3.94,-14.025 7.137,-60.541 7.137,-60.541 l -1.001,-10.768 c 0,0 -7.138,14.257 -20.497,12.738 -13.36,-1.52 -14.824,-4.868 -14.824,-4.868 0,0 -7.818,2.389 -14.844,-0.132 0,0 -9.986,0.376 -18.556,3.03 -14.283,4.423 -21.138,2.409 -21.138,2.409 l -0.014,7.71 c 0,0 3.491,8.762 3.399,21.206 -0.09,12.446 0.859,15.819 -5.167,16.657 -6.025,0.839 -24.016,-10.678 -24.016,-10.678 l -11.525,14.974 -4.857,2.596 -0.828,8.699 -6.954,6.551 -3.478,9.242 z"
             style="fill:#ffffff;fill-opacity:1;fill-rule:nonzero;stroke:none"
             id="path20107"
             inkscape:connector-curvature="0" /></g><g
           id="g20109"
           transform="translate(558.9684,204.0127)"><path
             d="M 0,0 -6.745,40.936 26.759,96.53 Z"
             style="fill:#ffffff;fill-opacity:1;fill-rule:nonzero;stroke:none"
             id="path20111"
             inkscape:connector-curvature="0" /></g><g
           id="g20113"
           transform="translate(618.8015,378.8359)"><path
             d="M 0,0 C 8.335,-0.776 28.467,7.276 28.467,7.276 L 25.294,-5.492 c 0,0 -20.115,-14.365 -27.95,-16.628 z"
             style="fill:#ffffff;fill-opacity:1;fill-rule:nonzero;stroke:none"
             id="path20115"
             inkscape:connector-curvature="0" /></g><g
           id="g20117"
           transform="translate(423.7233,399.2168)"><path
             d="m 0,0 c -8.638,-10.055 -9.125,-60.566 16.862,-73.193 0.367,18.667 5.124,53.336 17.752,69.401 0,0 0.158,-9.84 0.891,-18.441 7.503,4.026 20.888,3.943 20.888,3.943 l 9.334,12.262 2.378,-9.974 c 0,0 33.492,-0.433 40.629,0.666 7.138,1.098 10.249,11.544 10.249,11.544 1.539,-1.194 2.368,-5.669 2.319,-9.008 2.257,-0.366 27.39,0.209 31.355,-2.536 3.112,5.322 1.83,11.544 1.83,11.544 0,0 14.497,-20.489 7.138,-64.644 -0.793,-4.757 3.325,-2.745 3.325,-2.745 0,0 7.839,3.844 15.526,17.57 7.686,13.725 15.373,42.459 6.039,55.269 -5.803,7.965 -15.001,8.007 -21.13,6.899 -8.518,5.547 -11.629,9.023 -18.218,8.84 -6.588,-0.183 -9.883,-7.319 -9.883,-7.319 0,0 -8.784,11.895 -32.942,9.15 -24.157,-2.746 -37.7,-18.851 -37.7,-18.851 0,0 1.83,11.164 -3.112,12.079 -4.941,0.915 -19.216,0.264 -38.615,-16.248 l 12.287,18.333 z"
             style="fill:#ffffff;fill-opacity:1;fill-rule:nonzero;stroke:none"
             id="path20119"
             inkscape:connector-curvature="0" /></g><g
           id="g20121"
           transform="translate(506.653,713.4604)"><path
             d="m 0,0 c -11.713,8.785 -27.269,29.648 -27.269,29.648 l 2.563,-34.223 c 0,0 -15.557,25.804 -38.067,38.616 0,0 1.759,-11.713 1.794,-15.374 -16.618,9.517 -36.017,15.374 -36.017,15.374 0,0 1.83,-11.348 1.83,-15.557 -13.36,8.968 -53.257,19.766 -53.257,19.766 l 14.824,-10.798 c 0,0 -32.21,2.379 -53.44,-4.392 0,0 24.874,0.548 34.308,-1.831 -24.425,-4.392 -58.9,-15.739 -80.78,-31.697 0,0 60.577,25.221 116.756,20.773 56.178,-4.449 93.513,-23.482 93.513,-23.482 z"
             style="fill:#ffffff;fill-opacity:1;fill-rule:nonzero;stroke:none"
             id="path20123"
             inkscape:connector-curvature="0" /></g><g
           id="g20125"
           transform="translate(727.1833,537.7685)"><path
             d="m 0,0 -2.021,-5.256 c -2.02,-5.3 -5.504,-9.839 -9.97,-13.177 h -0.015 c -1.962,-1.464 -4.114,-2.694 -6.413,-3.646 l -23.674,-9.765 c 0,0 -106.513,11.947 -165.341,17.1 h -0.014 c -17.057,1.494 -30.103,2.416 -35.373,2.299 -2.299,-0.044 -5.3,-0.498 -8.902,-1.244 -33.045,-6.882 -117.084,-39.414 -183.964,-26.208 -55.006,11.786 -66.968,78.739 -68.871,121.506 -0.554,12.41 -0.263,22.781 0.067,29.183 0.166,3.23 -3.071,5.534 -6.073,4.334 l -9.279,-3.708 v -0.015 l -47.613,-19.048 11.464,30.995 c 19.267,8.39 37.627,16.339 55.109,23.572 49.589,20.542 91.989,35.402 127.172,38.653 23.132,2.137 62.883,0.292 104.932,-2.929 19.794,-1.508 40.087,-3.323 59.413,-5.183 24.084,-2.298 46.632,-4.655 64.786,-6.529 33.645,-3.485 66.163,-8.082 91.404,-13.001 h 0.015 C -30.614,153.54 -13.88,148.884 -7.32,144.58 -0.674,140.202 2.884,117.553 4.026,90.042 5.271,59.955 3.631,24.084 0,0"
             style="fill:#000000;fill-opacity:1;fill-rule:nonzero;stroke:none"
             id="path20127"
             inkscape:connector-curvature="0" /></g><g
           id="g20129"
           transform="translate(226.3,684.6909)"><path
             d="m 0,0 -18.96,-35.504 v -0.015 l -47.613,-19.048 11.464,30.995 C -35.841,-15.183 -17.481,-7.233 0,0"
             style="fill:#ffffff;fill-opacity:1;fill-rule:nonzero;stroke:none"
             id="path20131"
             inkscape:connector-curvature="0" /></g><g
           id="g20133"
           transform="translate(475.4606,524.079)"><path
             d="m 0,0 c -33.045,-6.881 -117.084,-39.414 -183.964,-26.207 -55.007,11.786 -66.968,78.739 -68.871,121.505 l 4.202,-0.351 c 0,-13.177 9.341,-37.144 25.065,-65.694 -8.785,16.646 -13.353,45.387 -12.064,63.308 0.732,-12.255 10.424,-45.388 21.961,-57.832 -15.021,23.615 -9.707,71.74 -9.707,71.74 0,0 4.026,-41.902 21.23,-68.256 -14.1,25.988 -15.256,70.526 -8.668,89.559 -5.432,-33.279 10.498,-83.703 25.139,-107.86 14.641,-24.158 39.779,-33.191 74.42,-31.727 -23.909,0.732 -48.066,13.425 -55.709,26.603 C -132.882,-13.763 -30.849,0.146 0,0"
             style="fill:#ffffff;fill-opacity:1;fill-rule:nonzero;stroke:none"
             id="path20135"
             inkscape:connector-curvature="0" /></g><g
           id="g20137"
           transform="translate(260.8463,698.4536)"><path
             d="m 0,0 c -14.254,-10.249 -17.914,-35.871 -16.938,-42.459 0,0 4.392,20.009 15.373,31.234 0,0 -4.393,-15.617 -3.416,-23.914 5.856,16.838 16.105,29.77 16.105,29.77 0,0 -4.393,-17.325 -4.393,-23.181 11.713,23.425 36.763,44.167 46.688,46.119 z"
             style="fill:#ffffff;fill-opacity:1;fill-rule:nonzero;stroke:none"
             id="path20139"
             inkscape:connector-curvature="0" /></g><g
           id="g20141"
           transform="translate(380.2965,718.3022)"><path
             d="m 0,0 c -25.361,-0.815 -49.152,-5.208 -63.062,-19.483 -13.908,-14.275 -9.15,-29.648 0,-32.21 9.151,-2.562 14.275,-5.856 14.275,-23.791 v -53.074 c 0,-10.981 6.798,-43.191 48.787,-52.342 41.988,-9.15 136.434,-2.165 163.508,-3.909 l -141.015,12.102 c 0,0 -40.077,-0.709 -44.881,32.884 -4.803,33.593 -0.707,96.909 -0.707,96.909 l 4.143,29.611 z"
             style="fill:#ffffff;fill-opacity:1;fill-rule:nonzero;stroke:none"
             id="path20143"
             inkscape:connector-curvature="0" /></g><g
           id="g20145"
           transform="translate(591.7311,530.2944)"><path
             d="m 0,0 c 0,0 101.046,3.265 111.111,8.572 10.066,5.307 19.821,14.033 24.735,1.618 0,0 -1.183,-9.501 -6.125,-14.803 -4.943,-5.303 -26.296,-2.657 -26.296,-2.657 z"
             style="fill:#ffffff;fill-opacity:1;fill-rule:nonzero;stroke:none"
             id="path20147"
             inkscape:connector-curvature="0" /></g><g
           id="g20149"
           transform="translate(546.7331,533.4931)"><path
             d="m 0,0 -125.855,9.868 c 0,0 -76.996,-1.815 -65.855,66.148 -0.058,19.18 9.678,26.471 20.894,22.079 11.229,-4.392 31.726,-44.889 54.171,-58.564 22.459,-13.66 71.741,-14.641 74.669,33.674 2.928,48.316 -77.099,81.024 -46.353,113.717 19.794,-1.508 40.087,-3.324 59.413,-5.183 0,0 -11.098,-11.903 6.954,-30.439 C -3.909,132.75 40.512,88.344 41.478,57.598 42.459,26.852 28.301,1.962 0,0"
             style="fill:#ffffff;fill-opacity:1;fill-rule:nonzero;stroke:none"
             id="path20151"
             inkscape:connector-curvature="0" /></g><g
           id="g20153"
           transform="translate(715.1774,519.3354)"><path
             d="m 0,0 c -1.962,-1.464 -4.114,-2.694 -6.413,-3.646 l -23.674,-9.765 c 0,0 -106.514,11.947 -165.341,17.1 z"
             style="fill:#ffffff;fill-opacity:1;fill-rule:nonzero;stroke:none"
             id="path20155"
             inkscape:connector-curvature="0" /></g><g
           id="g20157"
           transform="translate(731.2097,627.8105)"><path
             d="m 0,0 h -0.015 c -26.353,8.053 -51.961,48.682 -57.187,67.891 h 0.014 C -34.641,63.498 -17.906,58.842 -11.347,54.538 -4.7,50.16 -1.143,27.511 0,0"
             style="fill:#ffffff;fill-opacity:1;fill-rule:nonzero;stroke:none"
             id="path20159"
             inkscape:connector-curvature="0" /></g><g
           id="g20161"
           transform="translate(389.8971,718.3022)"><path
             d="m 0,0 c 18.067,-0.712 36.151,-0.825 54.22,-1.505 9.039,-0.259 18.048,-1.065 27.058,-1.786 l 27.022,-2.32 c 18.01,-1.603 35.987,-3.535 53.978,-5.323 17.989,-1.828 35.989,-3.547 53.94,-5.711 17.951,-2.145 35.88,-4.539 53.694,-7.635 8.907,-1.548 17.77,-3.341 26.613,-5.212 4.418,-0.954 8.828,-1.956 13.204,-3.089 4.364,-1.16 8.731,-2.385 12.899,-4.142 1.041,-0.437 2.061,-0.929 3.044,-1.486 0.993,-0.539 1.916,-1.221 2.614,-2.118 1.422,-1.766 2.349,-3.865 3.142,-5.974 1.548,-4.251 2.494,-8.692 3.289,-13.137 1.532,-8.912 2.325,-17.934 2.865,-26.955 1.021,-18.053 0.941,-36.157 0.162,-54.218 -1.919,9.132 -3.111,18.14 -4.153,27.107 -0.315,2.24 -0.511,4.477 -0.75,6.711 l -0.735,6.69 c -0.362,4.458 -0.876,8.893 -1.309,13.315 -0.875,8.827 -2.01,17.638 -3.803,25.999 -0.897,4.138 -2.019,8.248 -3.388,11.594 -0.633,1.622 -1.506,3.134 -1.884,3.463 -0.075,0.072 -0.097,0.057 0.043,-0.077 0.376,-0.264 -0.174,0.055 -0.373,0.157 -0.583,0.298 -1.337,0.641 -2.181,0.962 -3.384,1.315 -7.587,2.415 -11.749,3.397 l -12.871,2.814 c -4.347,0.915 -8.738,1.782 -13.146,2.636 -4.406,0.857 -8.73,1.645 -13.133,2.392 -8.759,1.608 -17.58,3.108 -26.442,4.454 l -26.654,3.91 c -17.786,2.577 -35.728,4.641 -53.647,7.115 l -53.724,7.331 -26.869,3.631 C 76.492,-6.441 72.015,-5.804 67.533,-5.174 63.107,-4.612 58.628,-4.262 54.13,-3.9 36.138,-2.489 18.034,-1.693 0,0"
             style="fill:#ffffff;fill-opacity:1;fill-rule:nonzero;stroke:none"
             id="path20163"
             inkscape:connector-curvature="0" /></g><g
           id="g20165"
           transform="translate(218.2785,657.6093)"><path
             d="M 0,0 C 1.812,0 3.602,-0.561 5.128,-1.653 7.583,-3.41 8.955,-6.259 8.8,-9.274 8.47,-15.673 8.19,-25.857 8.734,-38.036 c 1.736,-38.986 12.54,-106.081 65.404,-117.406 51.328,-10.138 113.1,7.28 153.976,18.805 11.205,3.16 20.883,5.889 28.174,7.407 4.17,0.865 7.255,1.29 9.713,1.336 5.035,0.102 16.693,-0.641 35.646,-2.298 l 0.208,-0.016 c 54.978,-4.817 152.746,-15.694 164.325,-16.987 l 22.632,9.336 c 1.933,0.8 3.772,1.846 5.46,3.106 l 0.526,0.393 c 3.607,2.839 6.359,6.569 7.982,10.827 l 1.852,4.819 c 3.551,23.873 5.122,59.446 3.911,88.734 -1.512,36.42 -6.604,49.227 -9.375,51.051 -3.29,2.159 -13.369,6.669 -43.869,12.632 l -0.412,0.077 c -24.835,4.841 -57.158,9.437 -91.013,12.944 l -6.462,0.668 c -16.487,1.705 -37.004,3.827 -58.291,5.858 -22.051,2.122 -41.458,3.815 -59.329,5.176 C 190.47,62.205 155.414,63.194 135.597,61.36 97.78,57.867 50.735,40.021 9.702,23.024 -7.685,15.83 -26.123,7.845 -43.617,0.229 L -51.001,-19.734 -3.29,-0.636 C -2.224,-0.21 -1.107,0 0,0 m 107.73,-167.27 c -12.024,0 -23.91,0.962 -35.363,3.223 -58.705,12.578 -70.561,84.103 -72.409,125.62 -0.559,12.527 -0.27,23.013 0.069,29.605 l -9.334,-3.694 -56.794,-22.72 15.544,42.026 1.716,0.747 c 18.04,7.854 37.159,16.146 55.183,23.603 41.638,17.248 89.463,35.366 128.447,38.967 20.598,1.903 55.162,0.947 105.672,-2.922 17.928,-1.366 37.39,-3.063 59.498,-5.19 21.318,-2.035 41.855,-4.159 58.357,-5.865 l 6.459,-0.669 c 33.921,-3.512 66.35,-8.118 91.377,-12.977 l 0.432,-0.081 c 24.619,-4.796 40.571,-9.504 47.41,-13.992 2.78,-1.831 11.223,-7.391 13.325,-58.027 1.24,-29.986 -0.396,-66.508 -4.07,-90.88 l -0.072,-0.474 -2.193,-5.702 c -2.289,-6.006 -6.247,-11.238 -11.441,-15.12 l -1.242,-0.874 c -1.926,-1.311 -3.984,-2.422 -6.134,-3.312 l -24.723,-10.198 -1.121,0.126 c -1.064,0.119 -106.905,11.974 -165.046,17.073 l -0.204,0.017 c -18.487,1.619 -30.225,2.385 -34.892,2.283 -1.887,-0.036 -4.535,-0.413 -8.106,-1.154 -6.988,-1.455 -16.531,-4.145 -27.578,-7.26 -32.752,-9.235 -78.663,-22.178 -122.767,-22.179"
             style="fill:#000000;fill-opacity:1;fill-rule:nonzero;stroke:none"
             id="path20167"
             inkscape:connector-curvature="0" /></g><g
           id="g20169"
           transform="translate(719.0847,518.6367)"><path
             d="m 0,0 c -94.858,3.759 -233.288,15.085 -260.075,17.316 -5.941,0.496 -11.699,0.92 -17.259,1.33 -38.665,2.847 -69.206,5.097 -83.173,26.514 -15.029,23.044 -4.874,124.622 -3.625,136.51 0.215,2.708 3.291,21.171 46.674,27.8 l 1.327,-8.684 c -37.007,-5.654 -39.235,-19.761 -39.252,-19.903 -3.217,-30.581 -9.075,-113.585 2.234,-130.925 11.592,-17.774 38.801,-19.777 76.461,-22.552 5.585,-0.411 11.373,-0.837 17.342,-1.335 C -232.59,23.841 -94.328,12.53 0.35,8.777 Z"
             style="fill:#000000;fill-opacity:1;fill-rule:nonzero;stroke:none"
             id="path20171"
             inkscape:connector-curvature="0" /></g><g
           id="g20173"
           transform="translate(664.9128,670.7187)"><path
             d="m 0,0 c 10.399,-13.253 13.716,-28.009 7.407,-32.959 -6.308,-4.95 -19.852,1.78 -30.252,15.033 -10.399,13.253 -13.716,28.009 -7.407,32.959 C -23.944,19.983 -10.399,13.253 0,0"
             style="fill:#ffffff;fill-opacity:1;fill-rule:nonzero;stroke:none"
             id="path20175"
             inkscape:connector-curvature="0" /></g><g
           id="g20177"
           transform="translate(613.446,688.1552)"><path
             d="m 0,0 c 3.263,-4.159 4.304,-8.79 2.324,-10.343 -1.979,-1.553 -6.23,0.558 -9.493,4.718 -3.264,4.158 -4.305,8.789 -2.325,10.342 C -7.515,6.271 -3.264,4.159 0,0"
             style="fill:#ffffff;fill-opacity:1;fill-rule:nonzero;stroke:none"
             id="path20179"
             inkscape:connector-curvature="0" /></g><g
           id="g20181"
           transform="translate(300.0353,640.2368)"><path
             d="m 0,0 c -2.549,-5.205 -6.528,-8.486 -8.889,-7.331 -2.36,1.156 -2.207,6.312 0.342,11.517 2.549,5.204 6.528,8.486 8.888,7.33 C 2.702,10.36 2.548,5.204 0,0"
             style="fill:#ffffff;fill-opacity:1;fill-rule:nonzero;stroke:none"
             id="path20183"
             inkscape:connector-curvature="0" /></g><g
           id="g20185"
           transform="translate(249.9118,207.3808)"><path
             d="m 0,0 c 0.575,-8.288 9.234,-117.944 62.339,-133.545 56.212,-16.508 178.869,-3.137 205.064,22.359 22.597,22 21.665,35.618 21.248,38.123 -0.023,0.124 -0.054,0.255 -0.07,0.317 -0.573,1.832 0.132,3.75 1.707,4.846 0.128,0.088 12.81,8.936 19.314,16.466 17.725,20.9 18.067,43.769 16.038,52.149 -5.985,-7.44 -16.049,-17.97 -16.569,-18.512 -1.392,-1.454 -3.595,-1.774 -5.342,-0.782 -1.75,0.995 -2.6,3.053 -2.062,4.993 l 35.914,129.559 c 0.214,0.767 0.631,1.464 1.21,2.013 0.158,0.15 16.07,15.424 19.631,31.095 0.364,1.603 1.593,2.868 3.184,3.278 4.68,1.21 15.363,7.061 25.402,13.913 0.001,0.002 0.001,0.002 0.003,0.002 l 0.539,0.368 c 9.049,6.166 10.49,7.148 12.798,13.462 1.346,4.73 -1.053,13.482 -2.899,17.924 -0.39,0.938 -0.443,1.988 -0.148,2.961 0.012,0.04 0.473,1.571 1.127,4.06 3.673,14.109 4.965,25.972 3.543,32.535 -0.766,3.539 -2.412,8.508 -4.533,13.68 -0.05,0.099 -0.097,0.2 -0.139,0.304 -3.131,7.579 -14.615,33.041 -31.738,44.491 -6.671,2.423 -82.914,29.672 -140.127,31.182 -0.693,0.018 -1.405,0.028 -2.122,0.028 -57.894,0 -196.151,-58.102 -210.516,-64.208 l -83.452,-126.422 92.619,27.755 c 1.455,0.437 3.037,0.088 4.176,-0.921 1.137,-1.009 1.673,-2.536 1.413,-4.035 z m 127.82,-149.763 c -26.622,0 -50.443,2.645 -67.957,7.791 -60.834,17.869 -68.374,136.895 -68.666,141.952 -0.019,0.334 0,0.67 0.057,1 l 26.433,152.962 -97.416,-29.193 c -1.771,-0.528 -3.683,0.105 -4.786,1.587 -1.102,1.484 -1.159,3.499 -0.141,5.04 L 6.191,269.002 c 0.473,0.714 1.142,1.275 1.929,1.613 6.351,2.738 156.278,67.038 217.544,65.408 61.05,-1.611 140.08,-30.661 143.414,-31.897 0.306,-0.114 0.6,-0.261 0.872,-0.439 19.227,-12.539 31.756,-39.849 35.337,-48.452 0.054,-0.102 0.101,-0.207 0.145,-0.314 2.408,-5.828 4.226,-11.325 5.125,-15.479 2.333,-10.764 -1.274,-27.562 -3.631,-36.616 -0.31,-1.183 -0.58,-2.164 -0.788,-2.896 1.499,-4.012 4.939,-14.659 2.591,-22.463 -0.024,-0.079 -0.05,-0.157 -0.079,-0.236 -3.302,-9.091 -6.541,-11.297 -16.154,-17.848 l -0.538,-0.366 c -7.624,-5.205 -18.363,-11.697 -25.612,-14.356 -4.422,-15.154 -17.09,-28.634 -20.615,-32.17 L 315.029,1.737 c 2.81,3.233 5.275,6.244 6.489,8.133 0.502,0.782 1.238,1.384 2.104,1.72 2.257,0.881 5.545,0.597 7.99,-2.834 6.285,-8.818 6.569,-40.074 -15.336,-65.902 -5.564,-6.442 -14.593,-13.338 -18.758,-16.38 0.367,-6.495 -1.673,-22.231 -23.987,-43.953 -13.58,-13.219 -49.314,-24.209 -95.59,-29.403 -17.21,-1.93 -34.169,-2.881 -50.121,-2.881"
             style="fill:#000000;fill-opacity:1;fill-rule:nonzero;stroke:none"
             id="path20187"
             inkscape:connector-curvature="0" /></g><g
           id="g20189"
           transform="translate(233.7375,465.3979)"><path
             d="m 0,0 c -4.817,-29.882 -18.038,-56.25 -36.354,-76.25 -0.029,-0.03 -0.043,-0.059 -0.087,-0.088 -25.754,-28.111 -61.58,-43.645 -98.271,-38.741 -62.795,8.405 -104.317,73.557 -92.706,145.517 11.595,71.947 71.916,123.483 134.711,115.079 5.007,-0.674 9.869,-1.699 14.582,-3.075 C -23.63,126.688 10.688,66.236 0,0"
             style="fill:#000000;fill-opacity:1;fill-rule:nonzero;stroke:none"
             id="path20191"
             inkscape:connector-curvature="0" /></g><g
           id="g20193"
           transform="translate(187.9259,468.9702)"><path
             d="m 0,0 c -3.895,-26.119 -14.568,-49.179 -29.355,-66.675 -0.015,-0.015 -0.03,-0.044 -0.059,-0.074 -20.79,-24.582 -49.706,-38.154 -79.325,-33.864 -50.687,7.335 -82.238,64.552 -72.868,127.479 1.464,9.824 3.836,19.209 6.998,28.023 17.057,47.613 57.012,78.564 99.779,72.356 4.041,-0.585 7.965,-1.493 11.771,-2.694 C -29.941,114.186 -6.047,81.639 0.044,41.463 V 41.449 C 2.05,28.287 2.123,14.305 0,0"
             style="fill:#ffffff;fill-opacity:1;fill-rule:nonzero;stroke:none"
             id="path20195"
             inkscape:connector-curvature="0" /></g><g
           id="g20197"
           transform="translate(127.6091,611.0771)"><path
             d="m 0,0 c -57.335,0 -109.874,-49.011 -120.567,-115.357 -6.057,-37.537 2.379,-75.098 23.144,-103.052 17.232,-23.198 41.714,-37.98 68.937,-41.624 35.297,-4.718 70.889,9.316 97.633,38.51 l 0.125,0.109 c 18.971,20.736 31.478,46.972 36.133,75.851 10.476,64.92 -22.886,125.805 -77.604,141.623 -4.66,1.36 -9.531,2.386 -14.477,3.052 C 8.867,-0.291 4.417,0 0,0 m -14.998,-262.395 c -4.554,0 -9.117,0.302 -13.683,0.913 -27.617,3.695 -52.448,18.682 -69.918,42.2 -20.999,28.269 -29.532,66.233 -23.414,104.158 11.641,72.232 72.43,124.137 135.532,115.687 5.02,-0.675 9.962,-1.717 14.69,-3.097 55.427,-16.023 89.235,-77.612 78.642,-143.262 -4.701,-29.162 -17.334,-55.66 -36.536,-76.628 l -0.089,-0.09 c -23.619,-25.779 -54.077,-39.88 -85.224,-39.881"
             style="fill:#000000;fill-opacity:1;fill-rule:nonzero;stroke:none"
             id="path20199"
             inkscape:connector-curvature="0" /></g><g
           id="g20201"
           transform="translate(148.4049,593.8232)"><path
             d="m 0,0 c 16.686,-12.01 44.26,-44.464 43.528,-84.483 l -3.963,1.093 -42.06,74.872 z"
             style="fill:#ffffff;fill-opacity:1;fill-rule:nonzero;stroke:none"
             id="path20203"
             inkscape:connector-curvature="0" /></g><g
           id="g20205"
           transform="translate(85.3337,353.1338)"><path
             d="m 0,0 c 9.762,0.512 19.313,2.498 28.419,5.644 9.125,3.094 17.814,7.317 26.009,12.279 8.155,5.032 15.888,10.744 22.874,17.266 7.037,6.457 13.363,13.681 18.67,21.557 5.358,7.796 9.69,16.43 13.444,25.248 3.813,8.815 6.822,17.981 9.391,27.273 2.488,9.313 4.452,18.796 5.673,28.394 1.281,9.594 1.817,19.307 0.908,29.038 2.201,-9.547 2.453,-19.494 1.956,-29.296 -0.563,-9.822 -1.939,-19.606 -4.099,-29.227 C 118.891,88.952 111.882,70.179 100.806,53.446 89.484,36.923 74.058,23.541 56.707,13.981 48.029,9.191 38.791,5.423 29.236,2.902 19.68,0.45 9.761,-0.783 0,0"
             style="fill:#ffffff;fill-opacity:1;fill-rule:nonzero;stroke:none"
             id="path20207"
             inkscape:connector-curvature="0" /></g><g
           id="g20209"
           transform="translate(233.7375,465.3979)"><path
             d="m 0,0 c -4.817,-29.882 -18.038,-56.25 -36.354,-76.25 l -0.073,-0.059 c 0.967,1.392 33.469,49.311 28.99,111.345 -4.539,62.839 -53.425,100.569 -70.688,107.406 C -23.63,126.688 10.688,66.236 0,0"
             style="fill:#ffffff;fill-opacity:1;fill-rule:nonzero;stroke:none"
             id="path20211"
             inkscape:connector-curvature="0" /></g><g
           id="g20213"
           transform="translate(127.5915,607.4184)"><path
             d="m 0,0 c -55.567,0 -106.53,-47.714 -116.936,-112.281 -5.9,-36.569 2.29,-73.122 22.469,-100.286 16.637,-22.399 40.248,-36.667 66.484,-40.179 34.103,-4.565 68.525,9.058 94.449,37.354 l 0.362,0.385 c 18.328,20.095 30.455,45.605 34.981,73.686 v 0 c 10.182,63.096 -22.064,122.218 -75.007,137.523 -4.494,1.312 -9.183,2.3 -13.948,2.942 C 8.554,-0.281 4.261,0 0,0 m -14.966,-262.397 c -4.72,-0.001 -9.45,0.313 -14.181,0.944 -28.607,3.829 -54.309,19.329 -72.373,43.647 -21.584,29.057 -30.364,68.029 -24.089,106.924 11.954,74.172 74.579,127.438 139.631,118.732 5.204,-0.7 10.327,-1.781 15.23,-3.212 57.192,-16.533 92.118,-79.885 81.23,-147.359 v 0.001 c -4.81,-29.844 -17.74,-56.973 -37.398,-78.46 l -0.446,-0.479 c -24.281,-26.337 -55.57,-40.736 -87.604,-40.738"
             style="fill:#000000;fill-opacity:1;fill-rule:nonzero;stroke:none"
             id="path20215"
             inkscape:connector-curvature="0" /></g><g
           id="g20217"
           transform="translate(102.4972,592.5878)"><path
             d="m 0,0 c -35.745,0 -69.763,-27.55 -85.045,-70.209 -3.106,-8.657 -5.39,-17.804 -6.789,-27.19 -5.13,-34.453 2.152,-67.956 19.979,-91.918 12.791,-17.193 29.795,-27.762 49.174,-30.567 27.133,-3.928 54.555,7.828 75.262,32.259 l 0.239,0.287 c 14.837,17.604 24.61,39.858 28.264,64.368 2.018,13.598 2.034,27.102 0.046,40.139 l -0.05,0.343 C 75.039,-43.305 52.062,-12.962 21.058,-3.259 17.426,-2.113 13.698,-1.26 9.968,-0.72 6.641,-0.237 3.311,0 0,0 m -12.314,-229.416 c -3.868,0 -7.745,0.277 -11.625,0.839 -21.742,3.145 -40.748,14.908 -54.963,34.016 -19.212,25.823 -27.092,61.709 -21.62,98.457 1.483,9.955 3.909,19.664 7.208,28.859 8.65,24.145 23.485,44.89 41.771,58.409 19.173,14.175 40.88,19.989 62.772,16.81 4.195,-0.608 8.388,-1.567 12.462,-2.851 34.312,-10.74 59.653,-43.931 66.124,-86.619 l 0.05,-0.343 c 2.069,-13.802 2.038,-28.072 -0.092,-42.424 v -0.003 C 85.877,-150.392 75.42,-174.159 59.528,-193.01 l -0.234,-0.28 c -19.79,-23.355 -45.375,-36.125 -71.608,-36.126"
             style="fill:#000000;fill-opacity:1;fill-rule:nonzero;stroke:none"
             id="path20219"
             inkscape:connector-curvature="0" /></g><g
           id="g20221"
           transform="translate(25.1471,420.6406)"><path
             d="m 0,0 c 12.564,-32.399 36.603,-45.388 62.224,-43.191 25.622,2.196 16.471,32.576 12.811,39.165 -3.66,6.589 -10.431,12.444 -0.549,17.935 9.883,5.49 15.901,13.543 20.395,22.144 C 83.332,23.06 71.375,17.691 53.074,17.447 34.772,17.203 23.548,36.053 23.548,36.053 c 0,0 1.22,-10.676 17.081,-21.168 C 43.923,10.249 35.504,2.752 30.502,-3.688 25.5,-10.127 20.62,-16.35 20.62,-16.35 20.62,-16.35 10.371,-13.543 0,0"
             style="fill:#000000;fill-opacity:1;fill-rule:nonzero;stroke:none"
             id="path20223"
             inkscape:connector-curvature="0" /></g><g
           id="g20225"
           transform="translate(124.8669,593.5214)"><path
             d="m 0,0 c -3.806,1.201 -7.73,2.108 -11.771,2.694 -42.767,6.208 -82.722,-24.743 -99.779,-72.356 -0.497,-6.954 7.804,-11.347 10.249,-11.347 2.43,0 12.196,-2.225 10.483,-14.055 0,0 10.249,15.271 11.713,23.572 0,0 -9.824,13.909 -10,21.961 -0.176,8.053 2.196,12.621 2.196,12.621 0,0 13.376,19.049 37.335,28.13 -9.119,-9.761 -25.094,-22.532 -25.521,-29.731 -0.172,-2.902 -0.29,-6.067 -0.281,-9.238 0.019,-7.113 7.331,-11.79 13.892,-9.041 2.861,1.199 5.96,2.173 9.211,2.781 -9.377,-4.217 -17.529,-13.506 -22.373,-25.816 -1.412,-3.581 -2.542,-7.417 -3.342,-11.456 -5.123,-25.871 5.244,-50.322 24.062,-54.536 10.997,-2.464 22.187,2.494 30.612,12.204 0.011,0.011 0.018,0.023 0.023,0.029 5.993,6.911 10.585,16.224 12.713,26.963 1.162,5.881 1.493,11.68 1.078,17.183 v 0.006 c -0.623,8.327 -2.938,15.974 -6.592,22.19 23.925,-25.645 20.592,-44.39 16.546,-59.403 10,15.871 10.981,34.904 10.483,50.277 -0.483,15.373 22.825,76.324 52.166,-6.72 C 57.012,-42.913 33.118,-10.366 0,0"
             style="fill:#000000;fill-opacity:1;fill-rule:nonzero;stroke:none"
             id="path20227"
             inkscape:connector-curvature="0" /></g><g
           id="g20229"
           transform="translate(337.8498,794.601)"><path
             d="m 0,0 -0.029,-0.015 c -2.153,-0.776 -117.216,-42.356 -142.164,-84.42 -25.198,-42.459 -50.366,-116.22 -65.211,-187.141 l -2.446,-8.682 c 0,0 -20.775,31.185 -55.416,36.719 1.889,10.879 4.129,21.566 6.589,31.977 0,0.014 0,0.029 0.014,0.043 0.03,0.132 0.118,0.527 0.279,1.186 0.117,0.498 0.234,0.981 0.365,1.479 2.373,9.897 4.949,19.517 7.643,28.74 0.249,0.849 0.498,1.728 0.747,2.592 5.051,17.115 10.41,32.825 15.446,46.456 3.763,10.131 7.321,19.106 10.454,26.646 2.137,5.169 4.729,10.132 7.716,14.802 0.146,0.235 0.292,0.469 0.453,0.703 2.431,3.704 5.096,7.248 8.009,10.571 0.015,0.029 0.03,0.044 0.044,0.058 3.924,4.524 8.287,8.682 13.03,12.416 0.03,0.029 0.074,0.058 0.103,0.088 1.845,1.435 3.733,2.811 5.681,4.129 9.048,6.105 20.307,13.294 33.045,20.643 24.128,13.895 53.571,28.272 83.439,36.559 0.175,0.058 0.351,0.102 0.526,0.161 4.92,1.362 9.869,2.548 14.788,3.543 0.015,0 0.029,0.015 0.044,0.015 C -37.247,3.221 -17.847,4.084 0,0"
             style="fill:#000000;fill-opacity:1;fill-rule:nonzero;stroke:none"
             id="path20231"
             inkscape:connector-curvature="0" /></g><g
           id="g20233"
           transform="translate(337.8498,794.601)"><path
             d="m 0,0 -0.029,-0.015 c -2.153,-0.776 -117.216,-42.356 -142.164,-84.42 -25.198,-42.459 -50.366,-116.22 -65.211,-187.141 l -2.446,-8.682 c 0,0 -20.775,31.185 -55.416,36.719 29.795,0.732 44.187,-8.535 44.187,-8.535 0,0 19.282,77.231 36.119,119.69 16.837,42.459 18.55,48.432 17.818,51.61 -0.732,3.176 -27.086,-5.608 -34.904,-13.543 -7.804,-7.936 -34.806,-94.362 -56.252,-129.939 0.029,0.131 -0.247,13.264 -0.086,13.923 0.102,0.396 0.219,0.893 0.365,1.479 1.201,4.846 3.954,15.71 7.643,28.74 0.249,0.849 0.498,1.728 0.747,2.592 4.29,14.934 9.721,32.239 15.446,46.456 0.059,0.146 0.117,0.278 0.176,0.424 7.466,18.492 11.42,30.395 17.994,41.024 0.146,0.235 0.292,0.469 0.453,0.703 2.27,3.587 4.861,7.042 8.009,10.571 0.015,0.029 0.03,0.044 0.044,0.058 3.543,3.953 7.775,7.994 13.03,12.416 0.03,0.029 0.074,0.058 0.103,0.088 8.155,6.837 22.24,15.739 38.726,24.772 26.485,14.495 59.164,29.326 83.439,36.559 0.175,0.058 0.351,0.102 0.526,0.161 5.403,1.596 10.396,2.811 14.788,3.543 -36.837,-16.852 -81.462,-47.232 -96.586,-67.861 C -116.147,-40.995 -53.021,0 0,0"
             style="fill:#ffffff;fill-opacity:1;fill-rule:nonzero;stroke:none"
             id="path20235"
             inkscape:connector-curvature="0" /></g><g
           id="g20237"
           transform="translate(77.6691,554.5585)"><path
             d="m 0,0 c 23.597,-5.272 40.335,-21.26 48.454,-30.678 l 0.053,0.191 c 15.273,72.894 41.057,146.807 65.702,188.337 20.128,33.933 95.346,66.941 128.613,80.233 -11.686,0.735 -24.431,-0.256 -38.098,-2.973 l -0.413,-0.199 -0.567,-0.004 c -4.639,-0.949 -9.341,-2.08 -13.987,-3.364 -0.096,-0.029 -0.192,-0.058 -0.288,-0.086 l -0.324,-0.098 c -25.192,-6.989 -52.922,-19.146 -82.421,-36.132 -11.131,-6.423 -22.161,-13.313 -32.779,-20.479 -1.765,-1.194 -3.546,-2.486 -5.291,-3.837 l -0.233,-0.19 c -4.386,-3.452 -8.461,-7.314 -12.118,-11.485 l -0.012,-0.024 -0.359,-0.409 c -2.698,-3.078 -5.267,-6.472 -7.638,-10.085 -0.177,-0.26 -0.289,-0.441 -0.402,-0.621 -2.879,-4.502 -5.354,-9.251 -7.382,-14.153 C 37.054,125.625 33.557,116.712 30.115,107.447 24.43,92.061 19.265,76.525 14.765,61.277 L 14.019,58.69 C 11.247,49.197 8.694,39.597 6.434,30.165 6.286,29.604 6.18,29.16 6.072,28.704 5.916,28.063 5.834,27.699 5.806,27.573 L 5.502,26.3 C 3.401,17.324 1.555,8.502 0,0 m 51.971,-50.599 -5.295,7.948 c -0.196,0.292 -20.197,29.664 -52.454,34.818 l -4.396,0.702 0.761,4.386 c 1.767,10.178 3.962,20.852 6.524,31.736 v 1.308 l 0.41,0.42 c 0.003,0.01 0.006,0.022 0.009,0.032 0.118,0.504 0.244,1.027 0.387,1.565 2.268,9.467 4.856,19.206 7.671,28.844 l 0.743,2.576 c 4.564,15.462 9.791,31.186 15.547,46.762 3.483,9.378 7.02,18.396 10.518,26.811 2.222,5.372 4.938,10.584 8.071,15.482 0.156,0.25 0.338,0.538 0.535,0.826 2.436,3.715 5.129,7.289 7.963,10.562 l 0.07,0.137 0.401,0.411 c 4.04,4.647 8.552,8.947 13.413,12.788 l 0.261,0.213 c 1.946,1.513 3.937,2.959 5.916,4.299 10.794,7.283 22,14.284 33.311,20.811 30.108,17.336 58.492,29.771 84.373,36.962 0.097,0.03 0.193,0.059 0.291,0.088 l 0.327,0.098 c 4.832,1.337 9.726,2.516 14.557,3.507 l 0.42,0.202 0.573,0.005 c 21.634,4.314 41.239,4.524 58.283,0.624 l 12.126,-2.776 -11.645,-5.652 C 221.633,221.466 140.91,185.647 121.765,153.367 97.555,112.571 72.163,39.641 57.076,-32.434 l -0.072,-0.29 z"
             style="fill:#000000;fill-opacity:1;fill-rule:nonzero;stroke:none"
             id="path20239"
             inkscape:connector-curvature="0" /></g><g
           id="g20241"
           transform="translate(413.0924,117.4091)"><path
             d="m 0,0 c -7.355,0 -12.687,1.187 -16.973,5.476 -8.932,8.931 -48.081,99.98 -55.838,118.141 -0.322,0.755 -0.426,1.586 -0.301,2.397 0.46,2.975 11.965,73.803 73.056,154.649 l 7.009,-5.296 C -48.464,202.031 -62.424,135.536 -64.22,125.869 -46.451,84.325 -16.667,17.592 -10.762,11.687 c 3.54,-3.541 9.758,-3.238 23.491,-2.222 9.785,0.726 23.181,1.719 40.582,0.942 39.455,-1.764 56.053,0.889 74.021,11.81 l 4.565,-7.506 C 112.155,2.712 94.438,-0.219 52.919,1.631 36.046,2.388 23.476,1.454 13.378,0.704 8.27,0.325 3.856,0 0,0"
             style="fill:#000000;fill-opacity:1;fill-rule:nonzero;stroke:none"
             id="path20243"
             inkscape:connector-curvature="0" /></g><g
           id="g20245"
           transform="translate(648.3415,386.0576)"><path
             d="m 0,0 c -13.131,7.275 -25.917,14.977 -39.138,20.944 -6.597,3.032 -13.387,5.417 -20.326,7.274 -3.445,1.013 -6.992,1.663 -10.507,2.428 -3.573,0.53 -7.11,1.223 -10.734,1.526 -14.413,1.561 -29.161,1.513 -43.884,0.657 -14.695,-0.91 -29.322,-2.642 -43.687,-5.612 -14.346,-3.02 -28.444,-7.175 -41.967,-12.742 -6.777,-2.747 -13.381,-5.908 -19.796,-9.408 -3.238,-1.698 -6.349,-3.616 -9.496,-5.477 -3.064,-1.989 -6.178,-3.912 -9.15,-6.043 -12.065,-8.283 -23.164,-17.944 -33.494,-28.473 -10.213,-10.649 -19.524,-22.249 -28.313,-34.442 6.204,13.689 14.27,26.603 23.766,38.462 9.608,11.753 20.632,22.502 32.986,31.518 24.682,18.11 53.536,30.252 83.323,36.652 14.9,3.248 30.036,5.238 45.194,6.144 15.121,0.894 30.408,1.048 45.73,-0.778 15.307,-1.62 30.609,-5.98 44.527,-12.597 C -21.014,23.432 -8.343,15.282 4.411,7.597 Z"
             style="fill:#000000;fill-opacity:1;fill-rule:nonzero;stroke:none"
             id="path20247"
             inkscape:connector-curvature="0" /></g><g
           id="g20249"
           transform="translate(467.3786,94.9365)"><path
             d="M 0,0 C 2.606,-0.497 5.197,-1.01 7.599,-1.479 3.558,-3.704 -8.302,-10.029 -14.904,-11.229 -10.878,-9.092 -4.992,-4.318 0,0 m 9.443,8.536 c 0,0 -0.351,-1.493 -3.894,-3.616 2.357,2.152 3.894,3.616 3.894,3.616 M 7.525,-10.673 c 2.519,1.742 5.081,5.08 6.955,7.833 3.485,-0.688 5.754,-1.157 5.754,-1.157 0,0 -7.13,-4.48 -12.709,-6.676 m 142.56,423.125 c 0,0 -80.98,30.014 -142.003,31.625 -61.023,1.595 -215.691,-65.051 -215.691,-65.051 l -90.848,-137.625 104.215,31.229 -27.642,-159.952 c 0,0 6.954,-120.789 65.518,-137.992 C -97.802,-42.518 25.549,-28.608 53,-1.889 76.807,21.288 76.118,36.485 75.519,40.102 l -4.466,-1.625 c 0,0 -1.948,-10.834 -13.909,-22.313 C 45.197,4.7 38.447,6.34 36.441,7.35 c -2.02,1.01 -14.743,6.046 -32.664,6.588 -17.95,0.557 -41.638,-3.557 -64.61,-13.176 10.644,4.011 32.21,3.938 41.536,2.649 3.235,-0.453 8.989,-1.478 15.124,-2.62 -12.561,-4.041 -40.804,-9.883 -40.804,-9.883 l 13.498,6.34 c -1.039,-0.132 -17.744,-2.372 -28.623,-4.144 -10.848,-1.771 -27.188,-9.267 -28.3,-9.765 1.185,0.791 20.19,13.777 24.45,22.649 -7.13,-6.047 -36.602,-17.393 -59.106,-18.301 12.636,4.744 32.577,16.647 32.577,16.647 -6.764,-1.464 -25.446,-5.666 -36.237,-2.738 4.202,8.404 3.66,14.817 3.66,14.817 0,0 -6.954,-12.445 -16.837,-18.857 8.595,9.896 8.243,29.31 8.243,29.31 0,0 -5.314,-13.206 -16.837,-16.485 9.693,13.909 11.156,35.489 11.156,35.489 0,0 -10.072,-19.94 -20.672,-23.967 11.888,18.111 13.352,43.308 13.352,43.308 0,0 -6.588,-15.124 -19.765,-26.105 19.282,31.727 19.282,64.669 19.282,64.669 0,0 -2.445,-14.889 -21.962,-31.477 15.608,25.621 17.203,56.601 17.203,56.601 0,0 -4.89,-17.32 -14.641,-23.659 3.895,8.052 12.445,32.445 9.151,41.727 -1.464,-5.49 -8.784,-22.694 -19.765,-26.238 2.928,3.778 15.973,37.086 16.105,46.486 -3.792,-5.974 -15.139,-14.026 -15.139,-14.026 l 20.747,42.328 c 0,0 -12.197,-12.446 -21.962,-14.393 4.641,4.876 33.425,42.21 52.341,73.366 18.916,31.142 40.995,58.959 66.076,77.612 -29.283,-6.207 -59.677,-27.994 -59.677,-27.994 18.125,23.602 45.767,40.087 45.767,40.087 0,0 -30.57,-3.85 -50.511,-15.563 5.476,8.595 25.431,21.596 25.431,21.596 -29.779,-4.964 -64.728,-27.453 -66.88,-28.843 l 33.323,26.646 c -61.184,-14.64 -111.579,-53.615 -142.193,-80.159 12.196,15.915 41.785,43.381 64.669,57.642 l -10.981,-4.393 c 5.301,9.517 11.157,40.087 11.157,40.087 0,0 59.955,28.799 88.548,30.498 l -38.037,-22.928 c 0,0 50.995,14.7 62.708,18.579 0,-10.044 7.569,-17.364 7.569,-17.364 0,0 -1.713,14.89 17.818,27.569 -7.745,-11.64 -5.374,-25.929 -3.177,-30.322 1.464,9.707 8.228,23.616 18.668,28.931 -7.131,-9.341 -10.059,-20.688 -6.589,-31.302 2.387,15.929 10.79,24.157 10.79,24.157 0,0 -7.13,-17.569 11.537,-28.916 -5.856,10.791 4.217,39.165 28.55,50.878 24.334,11.713 57.832,-4.027 74.304,-15.93 -6.998,12.753 -43.616,27.101 -44.978,27.628 1.596,-0.337 52.986,-11.771 73.718,-39.516 -6.047,17.203 -21.786,26.998 -21.786,26.998 0,0 13.631,-5.593 18.58,-11.537 2.825,0.556 3.206,6.325 3.206,6.325 0,0 3.103,-3.661 2.46,-9.063 11.259,8.682 49.515,12.342 56.279,4.67 6.765,-7.701 5.125,-20.146 -1.098,-32.942 0,0 10.249,0.732 16.106,4.202 3.059,-5.739 15.095,-6.12 15.592,-6.135 -6.559,15.886 -18.653,36.881 -33.806,46.764"
             style="fill:#000000;fill-opacity:1;fill-rule:nonzero;stroke:none"
             id="path20251"
             inkscape:connector-curvature="0" /></g><g
           id="g20253"
           transform="translate(481.8249,462.4892)"><path
             d="m 0,0 c -5.246,-1.083 -10.609,-1.763 -16.331,-0.977 -1.436,0.235 -2.899,0.543 -4.396,1.193 -1.48,0.562 -3.068,1.576 -4.383,3.135 -1.39,1.572 -1.988,3.978 -1.922,5.982 0.026,0.5 0.064,1.007 0.118,1.51 0.1,0.446 0.202,0.896 0.321,1.344 0.193,0.923 0.62,1.718 0.983,2.569 1.626,3.24 3.964,5.525 6.372,7.423 2.422,1.902 5.008,3.412 7.69,4.669 2.674,1.283 5.465,2.256 8.365,2.984 2.905,0.717 5.899,1.263 9.131,1.268 3.313,0.004 6.526,-0.456 9.693,-1.475 3.13,-1.032 5.931,-2.51 8.393,-3.968 2.47,-1.475 4.644,-2.98 6.799,-4.357 2.147,-1.395 4.263,-2.656 6.358,-3.964 4.164,-2.576 8.511,-5.211 12.804,-8.045 4.333,-2.835 8.661,-5.757 13.205,-9.334 -2.859,-0.666 -5.713,-0.754 -8.519,-0.653 -2.807,0.121 -5.59,0.465 -8.303,1.051 -5.453,1.152 -10.658,3.007 -15.646,5.65 -4.952,2.601 -9.465,6.037 -13.517,8.604 -2.011,1.309 -3.87,2.355 -5.72,3.058 -1.815,0.691 -3.847,1.164 -5.799,1.292 -4.131,0.249 -8.896,-0.531 -13.285,-1.928 -2.189,-0.732 -4.326,-1.614 -6.256,-2.68 -1.905,-1.075 -3.634,-2.365 -4.659,-3.701 -0.2,-0.336 -0.531,-0.646 -0.653,-1.014 -0.084,-0.178 -0.186,-0.354 -0.289,-0.534 -0.038,-0.148 -0.086,-0.295 -0.149,-0.446 -0.134,-0.573 -0.306,-0.962 -0.039,-1.493 0.254,-0.533 0.739,-1.269 1.636,-1.845 0.812,-0.619 1.866,-1.148 2.957,-1.637 C -10.549,1.784 -5.256,0.867 0,0"
             style="fill:#000000;fill-opacity:1;fill-rule:nonzero;stroke:none"
             id="path20255"
             inkscape:connector-curvature="0" /></g><g
           id="g20257"
           transform="translate(459.4684,467.6972)"><path
             d="m 0,0 c 0,0 27.931,0.821 45.519,13.302 0,0 -12.679,11.434 -30.762,4.179 C -3.327,10.226 0,0 0,0"
             style="fill:#000000;fill-opacity:1;fill-rule:nonzero;stroke:none"
             id="path20259"
             inkscape:connector-curvature="0" /></g><g
           id="g20261"
           transform="translate(545.0251,455.0468)"><path
             d="m 0,0 c 6.649,-0.408 12.807,0.906 18.178,3.496 2.651,1.289 5.171,2.84 7.001,4.809 0.232,0.243 0.434,0.499 0.641,0.752 0.299,0.359 0.645,0.804 0.972,1.129 0.667,0.714 1.336,1.316 2.01,1.919 1.361,1.166 2.728,2.231 4.135,3.233 2.798,2.011 5.595,4.006 8.553,5.84 2.954,1.825 6.098,3.442 9.501,4.397 3.391,0.963 7.011,1.422 10.661,0.963 3.601,-0.467 7.377,-1.813 9.966,-4.76 L 62.195,18.744 C 59.335,17.83 56.528,17.001 53.64,16.21 50.772,15.373 47.784,14.72 44.792,13.862 41.81,13.008 38.836,11.926 36.161,10.387 34.836,9.61 33.542,8.777 32.413,7.836 31.855,7.373 31.299,6.894 30.867,6.401 30.616,6.149 30.475,5.939 30.249,5.674 29.947,5.29 29.643,4.907 29.317,4.554 26.729,1.702 23.527,-0.214 20.161,-1.384 16.789,-2.552 13.239,-2.99 9.773,-2.809 6.314,-2.6 2.894,-1.712 0,0"
             style="fill:#000000;fill-opacity:1;fill-rule:nonzero;stroke:none"
             id="path20263"
             inkscape:connector-curvature="0" /></g><g
           id="g20265"
           transform="translate(572.7624,462.4082)"><path
             d="M 0,0 C 6.821,-2.628 24.365,-3.451 30.155,14.728 L 9.489,7.254 Z"
             style="fill:#000000;fill-opacity:1;fill-rule:nonzero;stroke:none"
             id="path20267"
             inkscape:connector-curvature="0" /></g><g
           id="g20269"
           transform="translate(387.5729,381.1093)"><path
             d="M 0,0 C 8.357,6.771 63.711,56.734 132.177,63.079 107.429,54.782 90.489,46.92 75.777,33.343 c 0,0 -38.068,-10.811 -58.633,-26.107 -20.566,-15.297 -24.04,-18.327 -24.04,-18.327 z"
             style="fill:#000000;fill-opacity:1;fill-rule:nonzero;stroke:none"
             id="path20271"
             inkscape:connector-curvature="0" /></g><g
           id="g20273"
           transform="translate(624.8181,365.9804)"><path
             d="M 0,0 C 7.879,3.812 19.718,12.182 19.908,24.634 20.168,41.493 4.026,63.69 -25.86,72.112 -4.148,72.844 20.405,56.886 27.77,45.334 c -0.689,-2.621 -1.172,-4.217 -1.172,-4.217 0,0 8.238,-14.153 1.756,-23.217 C 26.825,15.763 15.129,4.371 0,0"
             style="fill:#000000;fill-opacity:1;fill-rule:nonzero;stroke:none"
             id="path20275"
             inkscape:connector-curvature="0" /></g><g
           id="g20277"
           transform="translate(616.7663,354.0478)"><path
             d="m 0,0 -8.298,2.88 c 8.59,24.748 9.04,40.632 1.461,51.501 l 7.206,5.024 C 12.354,42.221 6.468,18.631 0,0"
             style="fill:#000000;fill-opacity:1;fill-rule:nonzero;stroke:none"
             id="path20279"
             inkscape:connector-curvature="0" /></g><g
           id="g20281"
           transform="translate(542.7067,447.4824)"><path
             d="m 0,0 c 16.837,-0.366 22.205,-2.684 26.354,-5.734 4.148,-3.051 7.808,-4.515 14.153,-4.881 C 30.258,-11.957 30.502,-14.031 21.229,-13.543 11.957,-13.055 3.172,-6.955 0,0"
             style="fill:#000000;fill-opacity:1;fill-rule:nonzero;stroke:none"
             id="path20283"
             inkscape:connector-curvature="0" /></g><g
           id="g20285"
           transform="translate(363.9645,277.0371)"><path
             d="m 0,0 c 6.832,11.956 15.617,18.301 44.655,15.616 29.038,-2.683 45.143,-25.622 47.095,-34.04 1.952,-8.418 10.005,-38.97 25.544,-54.6 -9.181,29.581 -11.822,49.474 -14.075,61.554 C 99.762,7.076 88.51,17.98 88.51,17.98 c 0,0 28.74,9.655 40.636,2.761 0,0 5.856,-5.429 8.418,-18.057 -12.994,9.882 -28.916,12.261 -28.916,12.261 0,0 24.341,-12.994 37.518,-47.765 13.177,-34.773 9.751,-64.421 6.34,-73.572 -6.524,7.321 -23.543,-1.281 -23.543,-1.281 0,0 -31.479,39.714 -36.786,67.531 -2.379,-17.203 6.809,-42.379 16.893,-65.365 l -38.123,2.409 c 0,0 7.687,30.015 1.465,42.277 -6.223,12.261 -26.281,-8.785 -26.281,-8.785 l -9.224,13.176 -8.968,6.04 0.55,6.772 -5.491,8.418 -4.94,6.955 z"
             style="fill:#ffffff;fill-opacity:1;fill-rule:nonzero;stroke:none"
             id="path20287"
             inkscape:connector-curvature="0" /></g><g
           id="g20289"
           transform="translate(468.069,119.4502)"><path
             d="m 0,0 -3.725,7.956 c 0.164,0.077 16.602,7.833 24.897,16.299 2.855,2.914 4.178,6.065 3.933,9.367 -0.28,3.767 -2.603,7.561 -6.372,10.408 -5.712,4.319 -12.467,0.043 -12.535,0 L 1.802,41.186 -0.234,46.01 c -0.101,0.213 -1.282,2.614 -3.872,2.733 -2.135,0.1 -4.61,0.851 -7.475,1.722 -5.415,1.642 -12.076,3.666 -16.485,1.278 -2.727,-5.335 -7.208,-11.483 -10.6,-13.321 l -11.445,-6.21 5.345,11.873 c 8.69,19.298 11.849,48.5 8.242,51.868 -3.966,2.212 -8.153,-0.652 -18.2,-8.795 -1.183,-0.959 -2.413,-1.955 -3.697,-2.977 l -14.625,-11.657 7.907,16.948 c 0.064,0.206 0.058,1.567 -1.295,3.977 -2.485,4.427 -7.227,8.595 -10.795,9.488 l -6.595,1.648 4.212,5.334 c 0.454,0.573 0.501,0.992 0.427,1.48 -0.369,2.502 -3.987,6.036 -6.439,7.747 l -1.002,0.698 -0.507,1.123 c -0.027,0.063 -2.869,6.406 -7.477,13.613 -2.877,4.501 -6.899,7.184 -10.768,7.184 h -0.047 c -4.244,-0.025 -8.423,-3.142 -12.081,-9.012 l -7.455,4.646 c 6.739,10.815 14.316,13.12 19.485,13.149 0.035,0.001 0.068,0.001 0.102,0.001 6.981,0 13.598,-4.091 18.164,-11.236 3.876,-6.061 6.55,-11.46 7.606,-13.694 2.45,-1.891 8.207,-6.91 9.107,-12.909 0.159,-1.065 0.164,-2.112 0.018,-3.129 5.456,-3.044 10.216,-8.577 12.456,-13.276 0.059,-0.126 0.118,-0.252 0.175,-0.378 8.912,7.143 16.856,12.585 25.705,7.633 8.493,-4.755 6.36,-25.626 1.969,-43.142 7.174,2.692 15.399,0.196 21.145,-1.547 2.11,-0.641 4.291,-1.304 5.33,-1.35 4.025,-0.187 7.009,-2.117 8.994,-4.242 4.366,1.643 11.763,3.029 18.734,-2.239 5.783,-4.371 9.369,-10.481 9.837,-16.766 C 34.301,28.426 32.08,22.835 27.446,18.107 18.031,8.499 0.732,0.342 0,0"
             style="fill:#000000;fill-opacity:1;fill-rule:nonzero;stroke:none"
             id="path20291"
             inkscape:connector-curvature="0" /></g><g
           id="g20293"
           transform="translate(398.5592,133.5127)"><path
             d="m 0,0 c 4.303,-1.386 9.503,-1.733 14.682,-1.536 5.208,0.196 10.496,0.981 15.675,2.168 5.19,1.184 10.214,2.961 14.975,5.143 2.391,1.081 4.737,2.24 7.022,3.606 2.302,1.365 4.52,2.919 6.753,5.058 -0.036,-3.102 -1.318,-6.177 -3.07,-8.801 -1.781,-2.631 -4.06,-4.868 -6.541,-6.739 -2.48,-1.886 -5.201,-3.353 -7.962,-4.669 -2.771,-1.297 -5.619,-2.407 -8.531,-3.297 -5.819,-1.798 -11.872,-2.794 -18.06,-2.915 -3.094,-0.03 -6.231,0.15 -9.383,0.759 -3.148,0.587 -6.342,1.575 -9.369,3.307 z"
             style="fill:#000000;fill-opacity:1;fill-rule:nonzero;stroke:none"
             id="path20295"
             inkscape:connector-curvature="0" /></g><g
           id="g20297"
           transform="translate(409.6881,203.6621)"><path
             d="m 0,0 c -6.127,-5.79 -12.889,-10.808 -18.711,-15.926 -1.436,-1.278 -2.772,-2.587 -3.892,-3.868 -1.136,-1.251 -2.005,-2.54 -2.337,-3.44 -0.039,-0.11 -0.09,-0.222 -0.105,-0.312 -0.031,-0.102 -0.061,-0.197 -0.047,-0.207 -0.018,0.001 -0.027,-0.313 -0.032,-0.569 10e-4,-0.599 0.099,-1.408 0.23,-2.216 0.274,-1.648 0.706,-3.443 1.27,-5.208 1.127,-3.547 2.668,-7.065 4.486,-10.406 1.784,-3.37 3.916,-6.54 6.279,-9.485 2.4,-2.926 5.123,-5.458 7.886,-8.032 2.776,-2.633 5.753,-5.008 9.273,-7.998 -4.488,-1.051 -9.22,-0.169 -13.32,1.757 -4.18,1.888 -7.619,4.942 -10.725,8.143 -6.18,6.511 -10.787,14.176 -13.867,22.65 -0.755,2.139 -1.438,4.327 -1.868,6.743 -0.204,1.225 -0.382,2.464 -0.406,3.929 0.008,0.771 -10e-4,1.495 0.177,2.509 0.071,0.504 0.178,0.907 0.288,1.3 0.104,0.412 0.239,0.782 0.375,1.157 1.135,2.967 2.772,5.049 4.358,6.874 1.628,1.793 3.311,3.306 4.987,4.727 3.343,2.855 6.76,5.264 10.118,7.676 l 10.029,7.008 z"
             style="fill:#000000;fill-opacity:1;fill-rule:nonzero;stroke:none"
             id="path20299"
             inkscape:connector-curvature="0" /></g><g
           id="g20301"
           transform="translate(391.236,222.3056)"><path
             d="M 0,0 C -1.832,0.633 -3.997,1.016 -6.218,1.254 -8.449,1.5 -10.77,1.532 -13.103,1.521 -17.78,1.452 -22.538,1.032 -27.271,0.315 c 4.306,2.116 8.766,3.983 13.425,5.535 2.34,0.754 4.716,1.474 7.219,1.979 2.504,0.505 5.099,0.894 7.963,0.854 z"
             style="fill:#000000;fill-opacity:1;fill-rule:nonzero;stroke:none"
             id="path20303"
             inkscape:connector-curvature="0" /></g><g
           id="g20305"
           transform="translate(382.57,238.5117)"><path
             d="m 0,0 c -0.102,0.058 -0.158,0.145 -0.274,0.267 l -0.778,0.382 c -0.577,0.247 -1.263,0.49 -1.955,0.7 -1.423,0.408 -2.94,0.748 -4.491,0.995 -3.102,0.498 -6.323,0.767 -9.536,0.706 -3.214,-0.061 -6.443,-0.391 -9.591,-1.163 -3.132,-0.783 -6.241,-2.007 -8.818,-4.177 2.043,2.686 4.967,4.697 8.047,6.232 3.1,1.538 6.416,2.644 9.801,3.464 3.391,0.821 6.857,1.303 10.407,1.519 1.776,0.107 3.578,0.115 5.446,0.006 C -0.795,8.86 0.154,8.759 1.183,8.576 L 2.787,8.207 C 3.428,7.983 4.112,7.687 4.76,7.383 Z"
             style="fill:#000000;fill-opacity:1;fill-rule:nonzero;stroke:none"
             id="path20307"
             inkscape:connector-curvature="0" /></g><g
           id="g20309"
           transform="translate(476.0182,168.6435)"><path
             d="m 0,0 c 0.564,-2.804 0.546,-5.449 0.285,-7.945 -0.283,-2.495 -0.866,-4.837 -1.545,-7.101 -0.688,-2.26 -1.553,-4.419 -2.488,-6.519 -0.948,-2.095 -1.974,-4.135 -3.135,-6.081 0.478,2.209 0.792,4.437 1.014,6.651 0.208,2.215 0.329,4.42 0.263,6.583 -0.075,2.158 -0.259,4.279 -0.694,6.253 -0.446,1.962 -1.109,3.77 -1.974,5.208 z"
             style="fill:#000000;fill-opacity:1;fill-rule:nonzero;stroke:none"
             id="path20311"
             inkscape:connector-curvature="0" /></g><g
           id="g20313"
           transform="translate(497.5036,119.4091)"><path
             d="m 0,0 -3.54,8.038 c 8.851,3.9 21.432,15.989 27.109,23.219 2.351,2.989 2.848,10.109 3.212,15.308 0.371,5.281 0.637,9.095 2.378,11.582 1.681,2.4 4.613,4.063 8.673,6.366 4.523,2.565 10.715,6.077 17.606,12.025 l 5.739,-6.65 C 53.633,63.375 47.006,59.616 42.166,56.871 39.775,55.516 37.074,53.984 36.414,53.185 35.979,52.134 35.728,48.569 35.545,45.952 35.077,39.265 34.494,30.94 30.478,25.829 25.615,19.64 11.769,5.183 0,0"
             style="fill:#000000;fill-opacity:1;fill-rule:nonzero;stroke:none"
             id="path20315"
             inkscape:connector-curvature="0" /></g><g
           id="g20317"
           transform="translate(522.0505,147.6328)"><path
             d="m 0,0 c -2.791,4.452 -3.696,9.196 -2.696,14.118 -1.313,1.623 -5.69,4.816 -10.114,7.361 -3.937,-0.04 -12.339,-0.998 -16.725,-5.272 l -6.131,6.291 c 8.518,8.303 23.577,7.779 24.221,7.746 0.681,-0.028 1.346,-0.214 1.944,-0.545 C 7.886,20.077 6.559,14.936 6.058,13.001 5.283,10 5.711,7.43 7.443,4.664 Z"
             style="fill:#000000;fill-opacity:1;fill-rule:nonzero;stroke:none"
             id="path20319"
             inkscape:connector-curvature="0" /></g><g
           id="g20321"
           transform="translate(528.237,161.4209)"><path
             d="m 0,0 -8.762,0.623 c 1.992,27.934 -0.194,41.878 -4.227,64.12 l -0.857,4.695 c -3.024,16.52 -4.849,26.492 -3.48,39.104 0.123,1.138 0.686,2.183 1.568,2.912 3.714,3.069 10.92,2.385 16.423,0.722 5.255,-1.587 17.939,-6.809 22.219,-20.973 0.209,-0.691 0.243,-1.423 0.101,-2.131 -0.006,-0.036 -0.916,-4.865 0.029,-10.697 1.108,-6.829 5.172,-47.941 5.343,-49.687 l -8.742,-0.864 c -0.041,0.427 -4.208,42.584 -5.271,49.144 -0.909,5.601 -0.468,10.431 -0.169,12.606 -2.668,7.53 -9.05,11.331 -12.709,12.952 -4.385,1.945 -8.21,2.391 -10.305,2.277 -0.687,-10.17 0.992,-19.354 3.635,-33.784 L -4.345,66.31 C -0.308,44.044 2.063,28.929 0,0"
             style="fill:#000000;fill-opacity:1;fill-rule:nonzero;stroke:none"
             id="path20323"
             inkscape:connector-curvature="0" /></g><g
           id="g20325"
           transform="translate(546.5143,209.8418)"><path
             d="m 0,0 c -5.416,6.554 -14.924,7.213 -22.11,1.537 l -5.445,6.894 c 11.034,8.709 25.789,7.488 34.324,-2.832 z"
             style="fill:#000000;fill-opacity:1;fill-rule:nonzero;stroke:none"
             id="path20327"
             inkscape:connector-curvature="0" /></g><g
           id="g20329"
           transform="translate(514.1628,248.0791)"><path
             d="m 0,0 c 2.536,1.377 5.357,2.705 8.549,3.538 1.59,0.406 3.288,0.622 4.97,0.626 1.685,-0.045 3.361,-0.238 4.909,-0.703 3.121,-0.893 5.791,-2.413 8.158,-4.135 L 28.323,-2 l 1.63,-1.414 c 1.107,-0.898 2.076,-1.976 2.541,-3.629 -1.771,-0.02 -2.936,0.677 -4.149,1.293 l -1.817,0.907 -1.844,0.779 c -2.462,0.963 -4.942,1.681 -7.282,1.774 -2.342,0.123 -4.446,-0.323 -6.5,-1.303 C 8.831,-4.519 6.795,-5.944 4.624,-7.469 Z"
             style="fill:#000000;fill-opacity:1;fill-rule:nonzero;stroke:none"
             id="path20331"
             inkscape:connector-curvature="0" /></g><g
           id="g20333"
           transform="translate(510.2223,314.6758)"><path
             d="m 0,0 c 13.085,7.87 19.582,13.36 19.582,13.36 0,0 12.079,-8.601 24.157,-8.967 0,0 -10.065,-6.68 -15.281,-6.864 -5.216,-0.182 -5.559,-1.037 -7.114,-1.494 -1.556,-0.457 -2.128,-3.904 -2.128,-3.904 0,0 -16.38,-1.464 -20.497,1.922 z"
             style="fill:#ffffff;fill-opacity:1;fill-rule:nonzero;stroke:none"
             id="path20335"
             inkscape:connector-curvature="0" /></g><g
           id="g20337"
           transform="translate(537.1032,333.4765)"><path
             d="m 0,0 c 9.242,-4.393 20.885,-8.003 23.447,-7.453 0,0 9.609,6.588 13.818,16.288 0,0 -14.001,-1.007 -25.713,4.117 C 11.552,12.952 8.053,5.216 0,0"
             style="fill:#ffffff;fill-opacity:1;fill-rule:nonzero;stroke:none"
             id="path20339"
             inkscape:connector-curvature="0" /></g><g
           id="g20341"
           transform="translate(562.9597,350.8925)"><path
             d="m 0,0 c 4.515,-1.871 14.794,-1.444 16.532,0.478 0,0 -0.731,22.967 -2.745,27.543 0,0 -1.464,-11.164 -3.568,-13.177 -2.105,-2.013 -7.23,-3.111 -7.23,-3.111 z"
             style="fill:#ffffff;fill-opacity:1;fill-rule:nonzero;stroke:none"
             id="path20343"
             inkscape:connector-curvature="0" /></g><g
           id="g20345"
           transform="translate(685.0905,505.9243)"><path
             d="m 0,0 -48.071,-20.985 -15.765,19.699 8.939,7.292 z"
             style="fill:#000000;fill-opacity:1;fill-rule:nonzero;stroke:none"
             id="path20347"
             inkscape:connector-curvature="0" /></g><g
           id="g20349"
           transform="translate(627.403,503.9863)"><path
             d="M 0,0 10.943,-13.676 40.815,-0.635 4.141,3.378 Z M 8.29,-24.419 -12.296,1.305 1.438,12.51 74.559,4.511 Z"
             style="fill:#000000;fill-opacity:1;fill-rule:nonzero;stroke:none"
             id="path20351"
             inkscape:connector-curvature="0" /></g><g
           id="g20353"
           transform="translate(410.0963,194.5166)"><path
             d="m 0,0 c -3.126,-5.787 -6.514,-11.493 -10.142,-17.074 -1.807,-2.797 -3.677,-5.562 -5.604,-8.302 -1.949,-2.759 -3.86,-5.418 -6.062,-8.199 l -8.861,9.753 c 2.565,1.621 5.276,3.515 7.88,5.379 2.623,1.882 5.224,3.821 7.787,5.817 C -9.861,-8.645 -4.86,-4.438 0,0"
             style="fill:#000000;fill-opacity:1;fill-rule:nonzero;stroke:none"
             id="path20355"
             inkscape:connector-curvature="0" /></g><g
           id="g20357"
           transform="translate(523.8845,160.7295)"><path
             d="m 0,0 c 3.519,1.317 7.028,2.895 10.482,4.676 3.436,1.817 6.841,3.775 10.174,5.886 6.653,4.241 13.123,8.903 19.274,13.998 C 34.805,18.421 29.253,12.605 23.338,7.083 17.39,1.594 11.049,-3.584 3.775,-7.932 Z"
             style="fill:#000000;fill-opacity:1;fill-rule:nonzero;stroke:none"
             id="path20359"
             inkscape:connector-curvature="0" /></g><g
           id="g20361"
           transform="translate(438.5631,402.2509)"><path
             d="m 0,0 c -3.183,-7.187 -6.095,-14.481 -8.176,-22.031 -1.041,-3.775 -1.883,-7.617 -2.426,-11.54 -0.54,-3.922 -0.79,-7.924 -0.8,-11.964 -1.077,3.889 -1.935,7.88 -2.494,11.96 -0.555,4.079 -0.798,8.232 -0.813,12.389 -0.034,8.332 0.855,16.63 2.045,24.828 z"
             style="fill:#000000;fill-opacity:1;fill-rule:nonzero;stroke:none"
             id="path20363"
             inkscape:connector-curvature="0" /></g><g
           id="g20365"
           transform="translate(608.3034,414.8867)"><path
             d="m 0,0 c 0.961,-7.877 1.699,-15.887 1.258,-23.953 -0.216,-4.02 -0.765,-8.037 -1.756,-11.899 -0.984,-3.864 -2.414,-7.55 -4.209,-10.966 0.762,3.79 1.07,7.598 0.936,11.332 -0.13,3.737 -0.689,7.402 -1.539,11 -1.689,7.194 -4.439,14.148 -7.406,21.032 z"
             style="fill:#000000;fill-opacity:1;fill-rule:nonzero;stroke:none"
             id="path20367"
             inkscape:connector-curvature="0" /></g><g
           id="g20369"
           transform="translate(119.3307,236.2216)"><path
             d="m 0,0 c -4.004,-6.403 -7.819,-12.779 -10.595,-19.466 -1.431,-3.317 -2.54,-6.728 -3.234,-10.164 -0.708,-3.43 -0.99,-6.898 -0.669,-10.274 0.316,-3.391 1.2,-6.625 2.812,-9.633 1.565,-3.071 3.718,-5.989 5.928,-8.956 2.208,-2.969 4.542,-6.006 6.477,-9.344 1.948,-3.312 3.373,-7.063 3.692,-10.834 -2.889,7.061 -8.344,11.89 -13.48,17.408 -2.564,2.771 -5.141,5.704 -7.172,9.202 -2.115,3.488 -3.364,7.59 -3.721,11.638 -0.385,4.071 0.07,8.14 1.074,11.975 0.992,3.847 2.519,7.49 4.422,10.859 C -10.698,-10.814 -5.729,-4.931 0,0"
             style="fill:#ffffff;fill-opacity:1;fill-rule:nonzero;stroke:none"
             id="path20371"
             inkscape:connector-curvature="0" /></g><g
           id="g20373"
           transform="translate(121.9665,159.6435)"><path
             d="m 0,0 c -1.695,4.012 -2.849,8.094 -3.84,12.204 -0.964,4.114 -1.713,8.448 -1.481,13.003 0.131,2.27 0.529,4.582 1.295,6.806 0.78,2.226 1.937,4.3 3.316,6.092 2.786,3.605 6.235,6.251 9.979,8.438 C 7.131,42.747 4.657,39.331 2.944,35.807 2.068,34.053 1.407,32.295 0.958,30.501 0.521,28.694 0.276,26.826 0.16,24.901 -0.05,21.044 0.253,16.988 0.423,12.784 0.57,8.564 0.557,4.318 0,0"
             style="fill:#ffffff;fill-opacity:1;fill-rule:nonzero;stroke:none"
             id="path20375"
             inkscape:connector-curvature="0" /></g><g
           id="g20377"
           transform="translate(90.1164,254.6972)"><path
             d="m 0,0 c 1.484,-2.735 2.168,-5.755 2.402,-8.791 0.214,-3.042 -0.069,-6.119 -0.8,-9.085 -0.728,-2.966 -1.912,-5.822 -3.518,-8.414 -1.62,-2.579 -3.634,-4.933 -6.228,-6.657 0.708,3.022 1.542,5.729 2.29,8.426 0.763,2.682 1.468,5.315 2.127,7.962 0.658,2.648 1.26,5.308 1.836,8.038 C -1.295,-5.788 -0.774,-3.003 0,0"
             style="fill:#ffffff;fill-opacity:1;fill-rule:nonzero;stroke:none"
             id="path20379"
             inkscape:connector-curvature="0" /></g><g
           id="g20381"
           transform="translate(160.484,181.0078)"><path
             d="m 0,0 c -2.295,-8.64 -2.559,-17.394 -0.986,-25.804 1.58,-8.394 4.68,-16.459 9.078,-23.749 2.198,-3.667 4.63,-7.092 7.432,-10.434 2.766,-3.367 5.746,-6.775 8.296,-10.623 1.265,-1.927 2.421,-3.966 3.353,-6.106 0.92,-2.14 1.629,-4.349 2.135,-6.585 0.998,-4.478 1.194,-9.043 0.758,-13.486 -1.383,8.819 -4.286,17.159 -9.739,23.64 -2.664,3.326 -5.742,6.416 -8.75,9.763 -3.043,3.319 -5.854,7.082 -8.199,11.02 -4.751,7.882 -7.764,16.836 -8.628,25.99 C -6.099,-17.238 -4.434,-7.784 0,0"
             style="fill:#ffffff;fill-opacity:1;fill-rule:nonzero;stroke:none"
             id="path20383"
             inkscape:connector-curvature="0" /></g><g
           id="g20385"
           transform="translate(180.067,112.2168)"><path
             d="m 0,0 c -2.778,1.88 -5.193,4.463 -6.977,7.442 -1.777,2.985 -3.057,6.298 -3.781,9.719 -1.519,6.857 -0.909,14.098 0.88,20.707 1.761,6.67 4.601,12.844 7.649,18.753 C 0.853,62.511 4.09,68.31 7.831,73.896 6.181,67.383 4.018,61.087 1.718,54.874 -0.581,48.678 -2.945,42.612 -4.573,36.461 -6.228,30.311 -7.1,24.09 -6.508,17.828 -5.956,11.585 -4.015,5.406 0,0"
             style="fill:#ffffff;fill-opacity:1;fill-rule:nonzero;stroke:none"
             id="path20387"
             inkscape:connector-curvature="0" /></g><g
           id="g20389"
           transform="translate(192.3776,156.7636)"><path
             d="m 0,0 c -1.628,-4.737 -2.358,-9.389 -2.235,-13.957 0.11,-4.555 1.083,-8.996 2.932,-12.993 1.718,-3.967 4.912,-7.613 7.359,-12.226 1.205,-2.287 2.139,-4.904 2.432,-7.469 0.326,-2.567 0.215,-5.067 -0.031,-7.558 -0.885,2.348 -1.643,4.704 -2.576,6.861 -0.916,2.176 -2.076,4.034 -3.483,5.871 -1.384,1.836 -2.971,3.626 -4.516,5.597 -1.552,1.942 -3.061,4.178 -4.175,6.638 -2.253,4.879 -2.98,10.363 -2.236,15.548 C -5.789,-8.517 -3.584,-3.542 0,0"
             style="fill:#ffffff;fill-opacity:1;fill-rule:nonzero;stroke:none"
             id="path20391"
             inkscape:connector-curvature="0" /></g><g
           id="g20393"
           transform="translate(222.0158,133.8525)"><path
             d="m 0,0 c -1.925,-5.852 -2.771,-11.712 -2.503,-17.456 0.251,-5.754 1.631,-11.273 4.139,-16.355 2.477,-5.159 5.977,-10.284 8.127,-16.376 1.04,-3.043 1.665,-6.273 1.56,-9.515 -0.092,-3.223 -1.037,-6.484 -2.937,-8.937 0.859,2.977 0.793,5.939 0.246,8.743 -0.555,2.81 -1.564,5.502 -2.854,8.048 -2.579,5.109 -6.286,9.884 -9.084,15.65 -2.87,5.799 -4.093,12.479 -3.498,18.848 C -6.229,-10.98 -3.944,-4.771 0,0"
             style="fill:#ffffff;fill-opacity:1;fill-rule:nonzero;stroke:none"
             id="path20395"
             inkscape:connector-curvature="0" /></g><g
           id="g20397"
           transform="translate(237.7931,55.1347)"><path
             d="M 0,0 C 1.226,2.717 3.892,4.851 6.861,5.889 9.816,6.978 13.188,7.154 16.279,6.632 22.556,5.604 27.86,2.511 32.919,0.452 35.463,-0.603 37.985,-1.442 40.5,-1.804 42.997,-2.158 45.543,-2 48.095,-1.309 53.23,0.032 58.1,3.176 62.89,6.59 59.745,1.625 55.386,-2.857 49.506,-5.389 c -2.909,-1.254 -6.27,-1.847 -9.542,-1.594 -3.268,0.247 -6.334,1.196 -9.14,2.362 -5.647,2.355 -10.372,5.5 -15.493,7.057 -2.55,0.82 -5.138,1.14 -7.829,0.846 C 4.847,2.992 2.176,2.027 0,0"
             style="fill:#ffffff;fill-opacity:1;fill-rule:nonzero;stroke:none"
             id="path20399"
             inkscape:connector-curvature="0" /></g><g
           id="g20401"
           transform="translate(249.2467,122.0185)"><path
             d="m 0,0 c -1.873,-4.661 -2.901,-9.253 -2.957,-13.846 -0.133,-4.571 0.695,-9.055 2.263,-13.191 0.828,-2.059 1.863,-3.996 3.089,-5.851 1.253,-1.854 2.723,-3.612 4.339,-5.303 3.209,-3.413 7.003,-6.526 10.542,-10.102 -4.739,1.639 -9.266,3.779 -13.403,6.869 -2.057,1.544 -3.991,3.344 -5.656,5.426 -1.655,2.105 -3.03,4.464 -4.021,6.957 -1.911,5.012 -2.445,10.507 -1.428,15.67 C -6.288,-8.218 -3.758,-3.353 0,0"
             style="fill:#ffffff;fill-opacity:1;fill-rule:nonzero;stroke:none"
             id="path20403"
             inkscape:connector-curvature="0" /></g><g
           id="g20405"
           transform="translate(266.715,152.9121)"><path
             d="m 0,0 c 3.536,-5.763 5.134,-12.818 4.791,-19.802 -0.182,-3.497 -0.834,-6.993 -1.958,-10.354 -1.095,-3.367 -2.801,-6.59 -4.632,-9.444 -1.827,-2.884 -3.726,-5.53 -5.346,-8.25 -1.642,-2.738 -3.144,-5.637 -4.688,-8.573 -1.557,-2.948 -3.11,-5.66 -3.442,-8.589 -0.174,-1.411 0.047,-2.918 0.686,-4.3 0.633,-1.363 1.733,-2.623 3.35,-3.17 -1.709,-0.043 -3.45,0.931 -4.618,2.333 -1.187,1.396 -1.945,3.211 -2.117,5.124 -0.348,3.807 1.071,7.309 2.204,10.376 1.19,3.124 2.475,6.27 4.079,9.338 1.611,3.098 3.523,5.915 5.253,8.646 1.756,2.741 3.251,5.395 4.394,8.299 1.157,2.886 2.012,5.913 2.557,9.025 C 1.608,-13.104 1.4,-6.589 0,0"
             style="fill:#ffffff;fill-opacity:1;fill-rule:nonzero;stroke:none"
             id="path20407"
             inkscape:connector-curvature="0" /></g><g
           id="g20409"
           transform="translate(331.4093,22.4023)"><path
             d="m 0,0 c 3.979,0.756 7.526,1.86 10.912,3.33 3.38,1.456 6.574,3.239 9.654,5.24 3.091,2.015 6.102,4.243 9.18,6.535 3.09,2.274 6.218,4.645 9.752,6.648 C 37.61,18.164 35.309,14.94 32.672,11.932 30.026,8.943 27.002,6.202 23.557,3.969 20.107,1.73 16.243,0.039 12.168,-0.784 8.114,-1.592 3.786,-1.526 0,0"
             style="fill:#ffffff;fill-opacity:1;fill-rule:nonzero;stroke:none"
             id="path20411"
             inkscape:connector-curvature="0" /></g><g
           id="g20413"
           transform="translate(383.8581,26.0879)"><path
             d="m 0,0 c 5.418,2.905 10.471,6.014 15.206,9.533 4.743,3.498 9.174,7.352 13.401,11.45 4.227,4.102 8.253,8.442 12.201,12.922 3.964,4.471 7.806,9.102 11.938,13.659 C 50.563,41.81 47.632,36.401 44.233,31.277 40.817,26.167 36.887,21.357 32.427,17.041 27.972,12.729 22.979,8.903 17.517,5.903 12.058,2.923 6.121,0.737 0,0"
             style="fill:#ffffff;fill-opacity:1;fill-rule:nonzero;stroke:none"
             id="path20415"
             inkscape:connector-curvature="0" /></g><g
           id="g20417"
           transform="translate(416.3092,29.4404)"><path
             d="m 0,0 c 0.774,3.159 1.81,6.015 2.841,8.841 1.05,2.812 2.133,5.561 3.246,8.299 1.111,2.738 2.259,5.46 3.475,8.204 1.237,2.742 2.495,5.507 4.157,8.304 0.589,-3.207 0.453,-6.39 -0.011,-9.507 C 13.223,21.026 12.361,17.979 11.169,15.067 9.979,12.155 8.465,9.375 6.634,6.81 4.784,4.257 2.657,1.886 0,0"
             style="fill:#ffffff;fill-opacity:1;fill-rule:nonzero;stroke:none"
             id="path20419"
             inkscape:connector-curvature="0" /></g><g
           id="g20421"
           transform="translate(448.1129,71.6474)"><path
             d="m 0,0 c -2.138,-5.008 -2.669,-10.2 -1.706,-14.935 0.872,-4.662 3.935,-8.945 5.535,-14.706 1.567,-5.75 0.944,-11.833 -0.995,-17.118 -1.957,-5.307 -5.109,-10.014 -9.141,-13.699 2.162,5.001 4.007,9.91 4.989,14.881 0.995,4.949 1.086,9.916 -0.154,14.514 -0.595,2.296 -1.613,4.656 -2.555,7.226 -0.947,2.547 -1.812,5.417 -1.952,8.396 C -6.261,-9.563 -4.049,-3.719 0,0"
             style="fill:#ffffff;fill-opacity:1;fill-rule:nonzero;stroke:none"
             id="path20423"
             inkscape:connector-curvature="0" /></g><g
           id="g20425"
           transform="translate(450.1657,29.9228)"><path
             d="m 0,0 c -0.619,0.001 -1.121,0.427 -1.429,0.954 -0.315,0.532 -0.48,1.118 -0.577,1.712 -0.168,1.109 -0.255,2.207 -0.255,3.329 0.01,2.234 0.364,4.475 0.968,6.646 1.233,4.341 3.499,8.359 6.389,11.783 2.9,3.433 6.399,6.233 10.15,8.459 3.768,2.208 7.772,3.888 12.023,4.865 -3.174,-2.994 -6.434,-5.622 -9.488,-8.36 C 14.72,26.669 11.833,23.881 9.286,20.879 6.746,17.871 4.513,14.629 2.725,11.102 1.822,9.34 1.046,7.501 0.391,5.575 0.068,4.615 -0.225,3.616 -0.496,2.621 -0.617,2.166 -0.699,1.684 -0.671,1.217 -0.654,0.764 -0.451,0.222 0,0"
             style="fill:#ffffff;fill-opacity:1;fill-rule:nonzero;stroke:none"
             id="path20427"
             inkscape:connector-curvature="0" /></g><g
           id="g20429"
           transform="translate(62.9767,258.416)"><path
             d="m 0,0 c -1.136,4.25 -1.812,8.674 -1.941,13.145 -0.051,4.461 0.281,8.967 1.157,13.389 1.759,8.835 5.312,17.377 10.487,24.844 5.087,7.487 12.03,13.866 19.601,18.485 7.483,4.734 15.163,8.538 21.619,14.574 -2.343,-3.74 -5.463,-7.035 -8.815,-9.939 -3.349,-2.927 -6.919,-5.521 -10.329,-8.172 -1.705,-1.324 -3.395,-2.642 -4.991,-4.024 -0.799,-0.693 -1.55,-1.427 -2.33,-2.131 l -1.16,-1.065 -1.089,-1.138 C 19.233,55.005 16.627,51.692 14.22,48.26 9.434,41.357 5.817,33.648 3.396,25.519 2.17,21.45 1.364,17.262 0.739,13.007 0.194,8.742 -0.011,4.415 0,0"
             style="fill:#ffffff;fill-opacity:1;fill-rule:nonzero;stroke:none"
             id="path20431"
             inkscape:connector-curvature="0" /></g><g
           id="g20433"
           transform="translate(86.7682,281.1328)"><path
             d="m 0,0 c 0.442,4.895 2.737,9.583 5.749,13.528 3.039,3.966 6.806,7.282 10.832,10.062 4.023,2.777 8.269,5.04 12.527,7.129 4.28,2.076 8.546,4.005 13.013,5.959 -3.1,-3.791 -6.933,-6.852 -10.79,-9.66 C 27.451,24.22 23.493,21.684 19.696,19.071 15.914,16.464 12.275,13.732 8.943,10.646 5.598,7.562 2.604,4.123 0,0"
             style="fill:#ffffff;fill-opacity:1;fill-rule:nonzero;stroke:none"
             id="path20435"
             inkscape:connector-curvature="0" /></g><g
           id="g20437"
           transform="translate(212.1964,328.7431)"><path
             d="m 0,0 c 4.33,8 10.295,15.16 17.234,21.228 3.477,3.03 7.219,5.771 11.149,8.219 3.94,2.467 8.087,4.493 12.104,6.47 4.03,1.982 7.94,3.922 11.606,6.251 3.684,2.325 7.232,4.924 10.661,7.728 C 69.63,55.484 76.053,61.819 82.88,67.82 77.773,60.317 72.197,53.132 65.632,46.678 62.347,43.463 58.79,40.473 54.956,37.817 51.114,35.14 46.965,32.981 42.908,30.99 38.835,28.992 34.83,27.135 31.025,24.975 27.205,22.817 23.488,20.454 19.915,17.863 12.749,12.692 6.173,6.662 0,0"
             style="fill:#ffffff;fill-opacity:1;fill-rule:nonzero;stroke:none"
             id="path20439"
             inkscape:connector-curvature="0" /></g><g
           id="g20441"
           transform="translate(238.8317,353.5644)"><path
             d="m 0,0 c 4.257,4.256 9.258,7.723 14.588,10.571 5.32,2.841 11.124,4.963 16.853,6.514 5.719,1.601 11.354,2.877 16.699,4.808 5.359,1.921 10.463,4.468 15.001,8.423 C 60.403,24.886 55.298,20.767 49.89,17.946 44.415,15.081 38.564,13.374 32.917,11.799 27.244,10.264 21.802,8.654 16.343,6.643 10.888,4.667 5.525,2.368 0,0"
             style="fill:#ffffff;fill-opacity:1;fill-rule:nonzero;stroke:none"
             id="path20443"
             inkscape:connector-curvature="0" /></g><g
           id="g20445"
           transform="translate(317.9611,388.9131)"><path
             d="m 0,0 c -1.096,-7.05 -3.793,-13.873 -7.548,-20.07 -3.838,-6.164 -8.537,-11.798 -14.548,-16.293 -2.989,-2.24 -6.516,-4.005 -9.963,-5.181 -3.448,-1.21 -6.845,-2.057 -10.048,-3.138 -6.407,-2.136 -12.476,-5.449 -18.187,-9.694 4.077,5.861 9.932,10.57 16.57,13.697 3.321,1.557 6.683,2.701 9.807,3.999 3.141,1.284 5.919,2.776 8.577,4.744 5.279,3.927 10.029,8.974 14.25,14.307 C -6.867,-12.237 -3.257,-6.331 0,0"
             style="fill:#ffffff;fill-opacity:1;fill-rule:nonzero;stroke:none"
             id="path20447"
             inkscape:connector-curvature="0" /></g><g
           id="g20449"
           transform="translate(286.0739,320.7324)"><path
             d="m 0,0 c -4.873,-6.464 -10.22,-12.633 -16.842,-17.697 -3.295,-2.519 -6.975,-4.692 -10.862,-6.326 -3.852,-1.619 -7.688,-2.792 -11.171,-4.296 -3.492,-1.46 -6.544,-3.432 -9.369,-5.899 -2.796,-2.473 -5.228,-5.439 -7.423,-8.63 -4.408,-6.398 -7.786,-13.706 -11.546,-20.891 1.61,7.934 3.884,15.798 7.865,23.149 2.006,3.648 4.457,7.16 7.546,10.175 3.068,2.989 6.827,5.512 10.76,7.139 3.907,1.672 7.807,2.756 11.432,4.086 3.593,1.313 7.017,3.001 10.339,5.044 C -12.611,-10.104 -6.486,-4.876 0,0"
             style="fill:#ffffff;fill-opacity:1;fill-rule:nonzero;stroke:none"
             id="path20451"
             inkscape:connector-curvature="0" /></g><g
           id="g20453"
           transform="translate(249.237,275.2744)"><path
             d="m 0,0 c -3.571,-4.711 -7.479,-9.009 -11.082,-13.423 -3.62,-4.395 -6.972,-8.882 -9.656,-13.681 -2.648,-4.754 -4.595,-9.924 -5.545,-15.315 -0.949,-5.392 -0.856,-11.009 0.825,-16.678 -3.765,4.628 -5.341,10.993 -5.121,17.104 0.214,6.159 2.05,12.21 5.053,17.572 2.99,5.331 6.965,9.956 11.324,13.96 4.386,4 9.126,7.449 14.202,10.461"
             style="fill:#ffffff;fill-opacity:1;fill-rule:nonzero;stroke:none"
             id="path20455"
             inkscape:connector-curvature="0" /></g><g
           id="g20457"
           transform="translate(219.88,304.1963)"><path
             d="m 0,0 c 0.02,2.785 1.044,5.438 2.542,7.753 1.518,2.311 3.556,4.289 5.897,5.783 2.339,1.498 4.993,2.512 7.729,2.912 2.731,0.383 5.571,0.19 8.104,-0.974 C 21.743,14.344 19.524,13.386 17.41,12.313 15.3,11.258 13.317,10.129 11.39,8.908 9.464,7.683 7.604,6.36 5.755,4.893 3.889,3.429 2.084,1.819 0,0"
             style="fill:#ffffff;fill-opacity:1;fill-rule:nonzero;stroke:none"
             id="path20459"
             inkscape:connector-curvature="0" /></g><g
           id="g20461"
           transform="translate(197.5319,342.6816)"><path
             d="m 0,0 c -4.384,-5.344 -8.699,-10.577 -11.946,-16.278 -1.621,-2.847 -2.972,-5.776 -3.955,-8.82 -0.996,-3.053 -1.706,-6.284 -2.461,-9.602 -0.758,-3.317 -1.564,-6.74 -2.812,-10.125 -1.229,-3.374 -3.011,-6.715 -5.357,-9.533 -4.681,-5.617 -11.396,-9.406 -18.318,-10.082 6.27,2.899 11.383,7.314 14.849,12.651 3.5,5.298 4.782,11.64 6.287,18.311 0.764,3.332 1.608,6.767 2.924,10.141 1.313,3.39 3.131,6.558 5.247,9.421 C -11.256,-8.198 -5.871,-3.635 0,0"
             style="fill:#ffffff;fill-opacity:1;fill-rule:nonzero;stroke:none"
             id="path20463"
             inkscape:connector-curvature="0" /></g><g
           id="g20465"
           transform="translate(172.8136,295.0175)"><path
             d="m 0,0 c 0.056,2.738 0.932,5.305 2.184,7.646 1.271,2.333 2.967,4.435 4.958,6.202 1.989,1.768 4.281,3.199 6.752,4.179 2.474,0.962 5.129,1.521 7.856,1.24 C 19.771,17.385 17.89,15.854 16.077,14.303 14.259,12.771 12.513,11.266 10.781,9.739 9.052,8.21 7.346,6.656 5.606,5.038 3.845,3.426 2.1,1.74 0,0"
             style="fill:#ffffff;fill-opacity:1;fill-rule:nonzero;stroke:none"
             id="path20467"
             inkscape:connector-curvature="0" /></g><g
           id="g20469"
           transform="translate(263.7038,239.1806)"><path
             d="m 0,0 c -2.497,-4.264 -4.742,-8.367 -6.464,-12.672 -1.742,-4.28 -3.101,-8.647 -3.954,-13.118 -0.897,-4.462 -1.31,-9.005 -1.262,-13.61 -0.011,-4.575 0.718,-9.576 -0.121,-14.492 -1.439,4.703 -3.274,9.056 -4.175,14.064 -0.896,4.967 -0.837,10.133 0.173,15.1 0.957,4.98 2.869,9.758 5.517,14.033 C -7.636,-6.43 -4.142,-2.688 0,0"
             style="fill:#ffffff;fill-opacity:1;fill-rule:nonzero;stroke:none"
             id="path20471"
             inkscape:connector-curvature="0" /></g><g
           id="g20473"
           transform="translate(274.7677,202.7031)"><path
             d="m 0,0 c -0.956,-5.915 -0.19,-11.74 -2.025,-18.021 -1.871,-6.19 -5.765,-11.281 -9.511,-15.839 -3.767,-4.576 -7.548,-8.829 -10.009,-13.752 -1.22,-2.426 -2.087,-5.076 -2.452,-7.833 -0.358,-2.753 -0.204,-5.65 0.839,-8.489 -2.041,2.244 -3.228,5.349 -3.537,8.504 -0.321,3.172 0.136,6.407 1.156,9.456 2.081,6.095 6.037,11.074 9.767,15.604 3.748,4.541 7.435,8.853 9.712,13.841 C -3.743,-11.647 -3.12,-5.27 0,0"
             style="fill:#ffffff;fill-opacity:1;fill-rule:nonzero;stroke:none"
             id="path20475"
             inkscape:connector-curvature="0" /></g><g
           id="g20477"
           transform="translate(284.276,150.208)"><path
             d="m 0,0 c 1.446,-3.063 2.351,-6.199 2.936,-9.442 0.562,-3.239 0.75,-6.592 0.408,-9.955 -0.341,-3.37 -1.241,-6.729 -2.798,-9.791 -1.561,-3.041 -3.802,-5.829 -6.763,-7.525 1.192,3.167 2.069,6.068 2.712,9.018 0.651,2.934 1.077,5.875 1.389,8.857 0.31,2.992 0.506,6.046 0.755,9.185 C -1.088,-6.516 -0.813,-3.294 0,0"
             style="fill:#ffffff;fill-opacity:1;fill-rule:nonzero;stroke:none"
             id="path20479"
             inkscape:connector-curvature="0" /></g><g
           id="g20481"
           transform="translate(284.2628,71.9677)"><path
             d="m 0,0 c -2.279,2.695 -3.454,6.323 -3.539,9.988 -0.039,1.837 0.185,3.7 0.674,5.508 0.487,1.809 1.281,3.559 2.198,5.105 1.852,3.114 4.145,5.614 6.272,8.023 2.141,2.426 4.147,4.716 5.764,7.846 C 12.058,32.95 10.767,29.233 9.172,26.192 7.543,23.105 5.613,20.427 4.059,17.81 2.499,15.223 1.418,12.603 0.747,9.613 0.06,6.646 -0.141,3.507 0,0"
             style="fill:#ffffff;fill-opacity:1;fill-rule:nonzero;stroke:none"
             id="path20483"
             inkscape:connector-curvature="0" /></g><g
           id="g20485"
           transform="translate(309.3117,87.4052)"><path
             d="m 0,0 c -0.406,-2.152 -1.078,-3.928 -1.792,-5.637 -0.731,-1.694 -1.538,-3.284 -2.426,-4.827 -0.886,-1.545 -1.861,-3.037 -2.963,-4.515 -1.122,-1.475 -2.325,-2.942 -3.994,-4.367 -0.504,2.141 -0.355,4.178 0.053,6.127 0.428,1.946 1.163,3.797 2.151,5.5 0.988,1.704 2.225,3.265 3.696,4.608 C -3.789,-1.785 -2.101,-0.638 0,0"
             style="fill:#ffffff;fill-opacity:1;fill-rule:nonzero;stroke:none"
             id="path20487"
             inkscape:connector-curvature="0" /></g><g
           id="g20489"
           transform="translate(300.674,39.7695)"><path
             d="m 0,0 c 2.627,2.777 5.175,5.296 7.58,7.906 2.413,2.591 4.696,5.225 6.873,7.946 2.174,2.722 4.245,5.524 6.247,8.445 2.021,2.918 3.924,5.951 6.067,9.12 C 26.813,29.58 25.915,25.823 24.516,22.278 23.098,18.736 21.133,15.403 18.737,12.42 16.342,9.436 13.52,6.79 10.373,4.634 7.218,2.497 3.75,0.799 0,0"
             style="fill:#ffffff;fill-opacity:1;fill-rule:nonzero;stroke:none"
             id="path20491"
             inkscape:connector-curvature="0" /></g><g
           id="g20493"
           transform="translate(333.7306,43.2129)"><path
             d="M 0,0 C 1.079,1.703 2.121,2.978 3.135,4.204 4.156,5.411 5.154,6.52 6.186,7.6 c 1.029,1.082 2.094,2.127 3.255,3.197 1.181,1.067 2.411,2.16 4.073,3.308 0.472,-1.974 0.184,-3.878 -0.433,-5.629 C 12.445,6.729 11.432,5.134 10.149,3.803 8.869,2.47 7.32,1.39 5.603,0.68 3.878,-0.011 1.991,-0.381 0,0"
             style="fill:#ffffff;fill-opacity:1;fill-rule:nonzero;stroke:none"
             id="path20495"
             inkscape:connector-curvature="0" /></g><g
           id="g20497"
           transform="translate(397.2995,66.7168)"><path
             d="m 0,0 c 0.565,-2.586 0.362,-5.157 -0.199,-7.625 -0.583,-2.464 -1.575,-4.823 -2.898,-6.979 -1.32,-2.157 -2.978,-4.109 -4.914,-5.742 -1.946,-1.617 -4.152,-2.958 -6.718,-3.616 1.088,2.406 2.283,4.432 3.445,6.431 1.174,1.982 2.334,3.895 3.512,5.802 1.19,1.901 2.377,3.799 3.597,5.749 C -2.914,-4.041 -1.647,-2.06 0,0"
             style="fill:#ffffff;fill-opacity:1;fill-rule:nonzero;stroke:none"
             id="path20499"
             inkscape:connector-curvature="0" /></g><g
           id="g20501"
           transform="translate(491.3942,71.1347)"><path
             d="m 0,0 c 0.849,-2.665 0.925,-5.402 0.623,-8.077 -0.322,-2.675 -1.071,-5.292 -2.182,-7.743 -1.107,-2.453 -2.584,-4.742 -4.384,-6.746 -1.814,-1.989 -3.926,-3.734 -6.495,-4.846 0.875,2.65 1.899,4.946 2.888,7.219 1.013,2.247 2.002,4.441 2.993,6.64 1.005,2.194 2.007,4.383 3.035,6.624 1.06,2.24 2.111,4.525 3.522,6.929"
             style="fill:#ffffff;fill-opacity:1;fill-rule:nonzero;stroke:none"
             id="path20503"
             inkscape:connector-curvature="0" /></g><g
           id="g20505"
           transform="translate(119.9631,213.7588)"><path
             d="m 0,0 c -0.384,2.675 0.075,5.312 0.942,7.783 0.888,2.468 2.234,4.77 3.923,6.78 1.686,2.013 3.724,3.734 6.004,5.032 2.284,1.279 4.807,2.181 7.512,2.255 C 16.712,19.734 15.098,17.98 13.556,16.216 12.007,14.47 10.526,12.76 9.065,11.03 7.605,9.299 6.174,7.546 4.718,5.722 3.242,3.901 1.791,2.008 0,0"
             style="fill:#ffffff;fill-opacity:1;fill-rule:nonzero;stroke:none"
             id="path20507"
             inkscape:connector-curvature="0" /></g><g
           id="g20509"
           transform="translate(99.3171,233.1562)"><path
             d="m 0,0 c 2.562,5.041 4.399,10.12 5.335,15.317 0.474,2.59 0.742,5.193 0.758,7.783 0.055,2.552 -0.246,5.337 0.001,8.421 0.283,3.098 1.163,6.147 2.542,8.858 1.368,2.724 3.162,5.133 5.147,7.263 4.011,4.251 8.688,7.476 13.669,10.144 C 23.921,53.36 20.142,49.297 17.136,44.923 14.099,40.578 11.973,35.921 11.564,31.066 11.347,28.612 11.537,25.84 11.282,22.85 11.054,19.896 10.433,16.991 9.494,14.217 7.606,8.682 4.36,3.634 0,0"
             style="fill:#ffffff;fill-opacity:1;fill-rule:nonzero;stroke:none"
             id="path20511"
             inkscape:connector-curvature="0" /></g><g
           id="g20513"
           transform="translate(152.6818,206.6904)"><path
             d="m 0,0 c -1.37,-3.402 -2.792,-6.52 -4.077,-9.661 -1.299,-3.127 -2.492,-6.236 -3.585,-9.382 -1.088,-3.147 -2.084,-6.324 -3.005,-9.583 -0.94,-3.261 -1.762,-6.586 -2.808,-10.103 -1.243,3.463 -1.602,7.136 -1.456,10.775 0.165,3.642 0.88,7.265 2.086,10.714 1.203,3.451 2.89,6.734 5.021,9.692 C -5.679,-4.606 -3.12,-1.949 0,0"
             style="fill:#ffffff;fill-opacity:1;fill-rule:nonzero;stroke:none"
             id="path20515"
             inkscape:connector-curvature="0" /></g><g
           id="g20517"
           transform="translate(66.174,686.7968)"><path
             d="m 0,0 c 0.189,5.978 2.163,11.957 5.408,17.188 1.622,2.615 3.573,5.076 5.892,7.239 2.283,2.159 5.117,3.995 7.923,5.261 2.808,1.281 5.397,2.298 8.042,3.485 2.634,1.159 5.257,2.355 7.874,3.589 5.244,2.456 10.424,5.094 15.819,7.651 C 46.917,40.012 42.231,36.274 37.25,32.996 34.75,31.367 32.169,29.86 29.521,28.479 26.9,27.088 24.068,25.863 21.543,24.714 19.009,23.56 16.833,22.239 14.718,20.515 12.628,18.812 10.69,16.834 8.905,14.683 5.306,10.393 2.41,5.452 0,0"
             style="fill:#ffffff;fill-opacity:1;fill-rule:nonzero;stroke:none"
             id="path20519"
             inkscape:connector-curvature="0" /></g><g
           id="g20521"
           transform="translate(72.5881,646.3862)"><path
             d="m 0,0 c -1.117,4.289 -0.232,9.031 1.557,13.131 1.807,4.141 4.463,7.785 7.389,11.014 2.917,3.211 6.034,6.033 9.033,8.887 3.02,2.852 5.896,5.727 8.684,9.106 -0.704,-4.362 -2.901,-8.391 -5.419,-11.93 -2.545,-3.555 -5.454,-6.7 -8.237,-9.755 C 10.248,17.415 7.599,14.371 5.333,11.069 3.056,7.767 1.19,4.219 0,0"
             style="fill:#ffffff;fill-opacity:1;fill-rule:nonzero;stroke:none"
             id="path20523"
             inkscape:connector-curvature="0" /></g><g
           id="g20525"
           transform="translate(95.006,743.1606)"><path
             d="m 0,0 c 1.525,3.114 3.885,5.714 6.584,7.859 2.716,2.133 5.817,3.792 9.1,4.911 3.28,1.121 6.751,1.697 10.204,1.663 3.448,-0.053 6.905,-0.677 10.011,-2.222 -3.378,-0.729 -6.5,-1.319 -9.55,-2.07 C 23.305,9.408 20.357,8.556 17.451,7.573 14.545,6.587 11.689,5.464 8.829,4.188 5.952,2.926 3.117,1.487 0,0"
             style="fill:#ffffff;fill-opacity:1;fill-rule:nonzero;stroke:none"
             id="path20527"
             inkscape:connector-curvature="0" /></g><g
           id="g20529"
           transform="translate(147.0241,767.205)"><path
             d="m 0,0 c 1.518,0.909 3.063,1.167 4.565,1.165 1.5,-0.023 2.959,-0.358 4.304,-0.948 1.345,-0.589 2.577,-1.441 3.606,-2.533 1.016,-1.106 1.866,-2.423 2.214,-4.163 -1.768,-0.054 -3.144,0.176 -4.444,0.467 C 8.958,-5.706 7.783,-5.309 6.654,-4.806 5.523,-4.304 4.438,-3.704 3.344,-2.96 2.252,-2.194 1.153,-1.335 0,0"
             style="fill:#ffffff;fill-opacity:1;fill-rule:nonzero;stroke:none"
             id="path20531"
             inkscape:connector-curvature="0" /></g><g
           id="g20533"
           transform="translate(366.0929,828.0937)"><path
             d="m 0,0 c 4.843,-6.72 9.29,-13.716 15.157,-18.899 5.781,-5.205 13.148,-8.226 20.689,-11.415 3.777,-1.601 7.628,-3.258 11.365,-5.317 3.737,-2.037 7.337,-4.585 10.394,-7.71 3.037,-3.142 5.409,-6.747 7.334,-10.474 1.93,-3.736 3.43,-7.604 4.794,-11.521 -4.745,6.784 -9.12,13.848 -15.083,18.848 -5.913,5.024 -13.381,7.912 -20.946,11.12 -3.789,1.61 -7.642,3.309 -11.354,5.446 -3.698,2.124 -7.282,4.744 -10.217,7.962 C 6.245,-15.508 2.841,-7.742 0,0"
             style="fill:#ffffff;fill-opacity:1;fill-rule:nonzero;stroke:none"
             id="path20535"
             inkscape:connector-curvature="0" /></g><g
           id="g20537"
           transform="translate(438.5631,790.0825)"><path
             d="m 0,0 c 2.354,-1.356 4.207,-3.21 5.798,-5.242 1.572,-2.046 2.846,-4.305 3.808,-6.688 0.964,-2.383 1.611,-4.895 1.894,-7.459 0.263,-2.567 0.208,-5.189 -0.557,-7.799 -1.496,2.264 -2.572,4.473 -3.608,6.661 -1.015,2.191 -1.944,4.358 -2.82,6.548 C 3.636,-11.79 2.805,-9.583 2.02,-7.3 1.252,-5.003 0.495,-2.665 0,0"
             style="fill:#ffffff;fill-opacity:1;fill-rule:nonzero;stroke:none"
             id="path20539"
             inkscape:connector-curvature="0" /></g><g
           id="g20541"
           transform="translate(459.3971,807.498)"><path
             d="m 0,0 c 2.079,-4.64 3.92,-9.194 5.897,-13.663 1.951,-4.465 3.975,-8.73 6.782,-12.169 2.798,-3.447 6.635,-6.353 10.426,-9.644 1.886,-1.656 3.776,-3.415 5.424,-5.421 1.646,-1.997 3.037,-4.267 3.807,-6.701 -3.526,3.676 -7.598,6.053 -11.795,8.65 -4.156,2.587 -8.614,5.367 -12.12,9.652 -3.479,4.298 -5.342,9.357 -6.594,14.241 C 0.593,-10.137 -0.149,-5.09 0,0"
             style="fill:#ffffff;fill-opacity:1;fill-rule:nonzero;stroke:none"
             id="path20543"
             inkscape:connector-curvature="0" /></g><g
           id="g20545"
           transform="translate(346.8537,779.3847)"><path
             d="m 0,0 c 3.062,1.907 6.852,2.526 10.49,2.304 3.661,-0.236 7.232,-1.299 10.474,-2.914 3.234,-1.611 6.126,-3.736 8.679,-6.127 2.546,-2.413 4.791,-5.056 6.664,-8.107 -3.342,1.3 -6.318,3.008 -9.232,4.638 -2.904,1.649 -5.717,3.259 -8.564,4.685 -2.832,1.415 -5.733,2.642 -8.766,3.587 C 6.703,-0.976 3.559,-0.33 0,0"
             style="fill:#ffffff;fill-opacity:1;fill-rule:nonzero;stroke:none"
             id="path20547"
             inkscape:connector-curvature="0" /></g><g
           id="g20549"
           transform="translate(264.0602,737.3691)"><path
             d="m 0,0 c 3.69,4.691 8.315,8.617 13.364,11.873 5.065,3.243 10.596,5.79 16.359,7.58 5.762,1.792 11.765,2.82 17.776,3.012 6.005,0.174 12.042,-0.448 17.738,-2.236 C 59.3,19.74 53.567,19.154 47.926,18.169 42.289,17.205 36.765,15.884 31.349,14.21 25.933,12.533 20.63,10.496 15.436,8.103 10.226,5.724 5.168,2.961 0,0"
             style="fill:#ffffff;fill-opacity:1;fill-rule:nonzero;stroke:none"
             id="path20551"
             inkscape:connector-curvature="0" /></g><g
           id="g20553"
           transform="translate(68.7839,606.1967)"><path
             d="m 0,0 c -0.219,4.141 0.37,8.223 1.364,12.191 1.016,3.964 2.489,7.813 4.351,11.461 1.86,3.649 4.117,7.097 6.734,10.244 2.633,3.131 5.598,5.999 9.088,8.242 C 19.771,38.392 17.86,34.939 16.023,31.474 14.172,28.024 12.369,24.6 10.602,21.154 8.837,17.708 7.119,14.239 5.406,10.717 3.672,7.2 1.995,3.627 0,0"
             style="fill:#ffffff;fill-opacity:1;fill-rule:nonzero;stroke:none"
             id="path20555"
             inkscape:connector-curvature="0" /></g><g
           id="g20557"
           transform="translate(97.0861,511.5366)"><path
             d="m 0,0 c -0.837,2.562 -1.855,5.035 -3.218,7.206 -1.349,2.162 -3.054,4.045 -5.086,5.098 -4.02,2.323 -8.761,0.897 -12.347,-1.941 -3.657,-2.881 -6.427,-6.985 -8.363,-11.5 -1.985,-4.492 -3.296,-9.343 -3.809,-14.269 -0.545,-4.916 -0.369,-9.921 0.663,-14.66 0.453,-2.399 1.33,-4.626 2.252,-6.818 l 0.852,-1.539 c 0.273,-0.524 0.56,-1.04 0.921,-1.489 l 1.008,-1.426 c 0.353,-0.46 0.78,-0.841 1.166,-1.273 0.74,-0.911 1.708,-1.522 2.59,-2.285 0.914,-0.661 1.87,-1.184 2.863,-1.549 1.98,-0.72 4.187,-0.645 6.368,0.229 2.209,0.815 4.277,2.36 6.175,4.113 1.896,1.774 3.633,3.801 5.205,5.989 -0.852,-2.57 -2.102,-5.014 -3.663,-7.308 -1.571,-2.283 -3.534,-4.405 -6.104,-6.006 -2.556,-1.577 -5.965,-2.315 -9.173,-1.665 -1.598,0.296 -3.088,0.922 -4.436,1.661 -1.268,0.814 -2.655,1.529 -3.735,2.597 -2.409,1.906 -4.153,4.4 -5.74,6.928 -1.402,2.608 -2.573,5.346 -3.287,8.167 -1.514,5.635 -1.806,11.459 -1.198,17.149 0.631,5.691 2.238,11.272 4.825,16.425 2.529,5.139 6.225,10.013 11.372,13.258 2.567,1.585 5.541,2.787 8.736,2.923 3.166,0.184 6.476,-0.794 8.871,-2.756 2.404,-1.955 3.975,-4.539 4.894,-7.182 C -0.46,5.425 -0.042,2.7 0,0"
             style="fill:#ffffff;fill-opacity:1;fill-rule:nonzero;stroke:none"
             id="path20559"
             inkscape:connector-curvature="0" /></g></g></g></g></svg>